<svg viewBox="0 0 100 100" xmlns="http://www.w3.org/2000/svg">
<path fill="none" stroke="black" 
d="M 10,10
 l 10,0 l 0,10 l -10,0 l 0,-10 Z" />
<path fill="none" stroke="black" 
d="M 20,10
 l 8.6602540378444,5.0 l -8.6602540378444,5.0 l 0,-10 Z" />
<path fill="none" stroke="black" 
d="M 28.660254037844,5.0
 l -8.6602540378444,5.0 l 8.6602540378444,5.0 l 0,-10 Z" />
<path fill="none" stroke="black" 
d="M 10,10
 l 5.0,-8.6602540378444 l 5.0,8.6602540378444 l -10,0 Z" />
<path fill="none" stroke="black" 
d="M 10,20
 l 5.0,8.6602540378444 l 5.0,-8.6602540378444 l -10,0 Z" />
<path fill="none" stroke="black" 
d="M 20,20
 l 8.6602540378444,5.0 l -5.0,8.6602540378444 l -8.6602540378444,-5.0 l 5.0,-8.6602540378444 Z" />
<path fill="none" stroke="black" 
d="M 28.660254037844,15.0
 l -8.6602540378444,5.0 l 8.6602540378444,5.0 l 0,-10 Z" />
<path fill="none" stroke="black" 
d="M 28.660254037844,5.0
 l 10,0 l 0,10 l -10,0 l 0,-10 Z" />
<path fill="none" stroke="black" 
d="M 28.660254037844,15.0
 l 10,0 l 0,10 l -10,0 l 0,-10 Z" />
<path fill="none" stroke="black" 
d="M 23.660254037844,33.660254037844
 l 10,0 l 0,10 l -10,0 l 0,-10 Z" />
<path fill="none" stroke="black" 
d="M 33.660254037844,33.660254037844
 l 10,0 l 0,10 l -10,0 l 0,-10 Z" />
<path fill="none" stroke="black" 
d="M 23.660254037844,33.660254037844
 l 5.0,-8.6602540378444 l 5.0,8.6602540378444 l -10,0 Z" />
<path fill="none" stroke="black" 
d="M 28.660254037844,25.0
 l 5.0,8.6602540378444 l 5.0,-8.6602540378444 l -10,0 Z" />
<path fill="none" stroke="black" 
d="M 33.660254037844,33.660254037844
 l 5.0,-8.6602540378444 l 5.0,8.6602540378444 l -10,0 Z" />
<path fill="none" stroke="black" 
d="M 23.660254037844,43.660254037844
 l 5.0,8.6602540378444 l 5.0,-8.6602540378444 l -10,0 Z" />
<path fill="none" stroke="black" 
d="M 28.660254037844,52.320508075689
 l 5.0,-8.6602540378444 l 5.0,8.6602540378444 l -10,0 Z" />
<path fill="none" stroke="black" 
d="M 33.660254037844,43.660254037844
 l 5.0,8.6602540378444 l 5.0,-8.6602540378444 l -10,0 Z" />

<path fill="none" stroke="black" 
d="M 38.660254037844,5.0
 l 8.6602540378444,5.0 l -8.6602540378444,5.0 l 0,-10 Z" />
<path fill="none" stroke="black" 
d="M 38.660254037844,15.0
 l 8.6602540378444,5.0 l -8.6602540378444,5.0 l 0,-10 Z" />
<path fill="none" stroke="black" 
d="M 47.320508075689,10
 l -8.6602540378444,5.0 l 8.6602540378444,5.0 l 0,-10 Z" />
<path fill="none" stroke="black" 
d="M 28.660254037844,52.320508075689
 l 10,0 l 0,10 l -10,0 l 0,-10 Z" />
<path fill="none" stroke="black" 
d="M 28.660254037844,62.320508075689
 l 10,0 l 0,10 l -10,0 l 0,-10 Z" />
<path fill="none" stroke="black" 
d="M 28.660254037844,52.320508075689
 l -8.6602540378444,5.0 l 8.6602540378444,5.0 l 0,-10 Z" />
<path fill="none" stroke="black" 
d="M 20.0,57.320508075689
 l 8.6602540378444,5.0 l -8.6602540378444,5.0 l 0,-10 Z" />
<path fill="none" stroke="black" 
d="M 28.660254037844,62.320508075689
 l -8.6602540378444,5.0 l 8.6602540378444,5.0 l 0,-10 Z" />
<path fill="none" stroke="black" 
d="M 38.660254037844,52.320508075689
 l 8.6602540378444,5.0 l -8.6602540378444,5.0 l 0,-10 Z" />
<path fill="none" stroke="black" 
d="M 47.320508075689,57.320508075689
 l -8.6602540378444,5.0 l 8.6602540378444,5.0 l 0,-10 Z" />
<path fill="none" stroke="black" 
d="M 38.660254037844,62.320508075689
 l 8.6602540378444,5.0 l -8.6602540378444,5.0 l 0,-10 Z" />
<path fill="none" stroke="black" 
d="M 15.0,48.660254037844
 l 8.6602540378444,-5.0 l 5.0,8.6602540378444 l -8.6602540378444,5.0 l -5.0,-8.6602540378444 Z" />
<path fill="none" stroke="black" 
d="M 43.660254037844,43.660254037844
 l 8.6602540378444,5.0 l -5.0,8.6602540378444 l -8.6602540378444,-5.0 l 5.0,-8.6602540378444 Z" />

<path fill="none" stroke="black" 
d="M 47.320508075689,10
 l 10,0 l 0,10 l -10,0 l 0,-10 Z" />
<path fill="none" stroke="black" 
d="M 57.320508075689,10
 l 10,0 l 0,10 l -10,0 l 0,-10 Z" />
<path fill="none" stroke="black" 
d="M 47.320508075689,10
 l 5.0,-8.6602540378444 l 5.0,8.6602540378444 l -10,0 Z" />
<path fill="none" stroke="black" 
d="M 52.320508075689,1.3397459621556
 l 5.0,8.6602540378444 l 5.0,-8.6602540378444 l -10,0 Z" />
<path fill="none" stroke="black" 
d="M 57.320508075689,10
 l 5.0,-8.6602540378444 l 5.0,8.6602540378444 l -10,0 Z" />
<path fill="none" stroke="black" 
d="M 47.320508075689,20
 l 5.0,8.6602540378444 l 5.0,-8.6602540378444 l -10,0 Z" />
<path fill="none" stroke="black" 
d="M 52.320508075689,28.660254037844
 l 5.0,-8.6602540378444 l 5.0,8.6602540378444 l -10,0 Z" />
<path fill="none" stroke="black" 
d="M 57.320508075689,20
 l 5.0,8.6602540378444 l 5.0,-8.6602540378444 l -10,0 Z" />

<path fill="none" stroke="black" 
d="M 52.320508075689,28.660254037844
 l 10,0 l 0,10 l -10,0 l 0,-10 Z" />
<path fill="none" stroke="black" 
d="M 52.320508075689,38.660254037844
 l 10,0 l 0,10 l -10,0 l 0,-10 Z" />
<path fill="none" stroke="black" 
d="M 52.320508075689,28.660254037844
 l -8.6602540378444,5.0 l 8.6602540378444,5.0 l 0,-10 Z" />
<path fill="none" stroke="black" 
d="M 43.660254037844,33.660254037844
 l 8.6602540378444,5.0 l -8.6602540378444,5.0 l 0,-10 Z" />
<path fill="none" stroke="black" 
d="M 52.320508075689,38.660254037844
 l -8.6602540378444,5.0 l 8.6602540378444,5.0 l 0,-10 Z" />
<path fill="none" stroke="black" 
d="M 62.320508075689,28.660254037844
 l 8.6602540378444,5.0 l -8.6602540378444,5.0 l 0,-10 Z" />
<path fill="none" stroke="black" 
d="M 70.980762113533,33.660254037844
 l -8.6602540378444,5.0 l 8.6602540378444,5.0 l 0,-10 Z" />
<path fill="none" stroke="black" 
d="M 62.320508075689,38.660254037844
 l 8.6602540378444,5.0 l -8.6602540378444,5.0 l 0,-10 Z" />
<path fill="none" stroke="black" 
d="M 38.660254037844,25.0
 l 8.6602540378444,-5.0 l 5.0,8.6602540378444 l -8.6602540378444,5.0 l -5.0,-8.6602540378444 Z" />
<path fill="none" stroke="black" 
d="M 67.320508075689,20.0
 l 8.6602540378444,5.0 l -5.0,8.6602540378444 l -8.6602540378444,-5.0 l 5.0,-8.6602540378444 Z" />

<path fill="none" stroke="black" 
d="M 47.320508075689,57.320508075689
 l 10,0 l 0,10 l -10,0 l 0,-10 Z" />
<path fill="none" stroke="black" 
d="M 57.320508075689,57.320508075689
 l 10,0 l 0,10 l -10,0 l 0,-10 Z" />
<path fill="none" stroke="black" 
d="M 47.320508075689,57.320508075689
 l 5.0,-8.6602540378444 l 5.0,8.6602540378444 l -10,0 Z" />
<path fill="none" stroke="black" 
d="M 52.320508075689,48.660254037844
 l 5.0,8.6602540378444 l 5.0,-8.6602540378444 l -10,0 Z" />
<path fill="none" stroke="black" 
d="M 57.320508075689,57.320508075689
 l 5.0,-8.6602540378444 l 5.0,8.6602540378444 l -10,0 Z" />
<path fill="none" stroke="black" 
d="M 47.320508075689,67.320508075689
 l 5.0,8.6602540378444 l 5.0,-8.6602540378444 l -10,0 Z" />
<path fill="none" stroke="black" 
d="M 52.320508075689,75.980762113533
 l 5.0,-8.6602540378444 l 5.0,8.6602540378444 l -10,0 Z" />
<path fill="none" stroke="black" 
d="M 57.320508075689,67.320508075689
 l 5.0,8.6602540378444 l 5.0,-8.6602540378444 l -10,0 Z" />

<path fill="none" stroke="black" 
d="M 75.980762113533,52.320508075689
 l 10,0 l 0,10 l -10,0 l 0,-10 Z" />
<path fill="none" stroke="black" 
d="M 75.980762113533,62.320508075689
 l 10,0 l 0,10 l -10,0 l 0,-10 Z" />
<path fill="none" stroke="black" 
d="M 75.980762113533,52.320508075689
 l -8.6602540378444,5.0 l 8.6602540378444,5.0 l 0,-10 Z" />
<path fill="none" stroke="black" 
d="M 67.320508075689,57.320508075689
 l 8.6602540378444,5.0 l -8.6602540378444,5.0 l 0,-10 Z" />
<path fill="none" stroke="black" 
d="M 75.980762113533,62.320508075689
 l -8.6602540378444,5.0 l 8.6602540378444,5.0 l 0,-10 Z" />
<path fill="none" stroke="black" 
d="M 85.980762113533,52.320508075689
 l 8.6602540378444,5.0 l -8.6602540378444,5.0 l 0,-10 Z" />
<path fill="none" stroke="black" 
d="M 94.641016151378,57.320508075689
 l -8.6602540378444,5.0 l 8.6602540378444,5.0 l 0,-10 Z" />
<path fill="none" stroke="black" 
d="M 85.980762113533,62.320508075689
 l 8.6602540378444,5.0 l -8.6602540378444,5.0 l 0,-10 Z" />
<path fill="none" stroke="black" 
d="M 62.320508075689,48.660254037844
 l 8.6602540378444,-5.0 l 5.0,8.6602540378444 l -8.6602540378444,5.0 l -5.0,-8.6602540378444 Z" />
<path fill="none" stroke="black" 
d="M 90.980762113533,43.660254037844
 l 8.6602540378444,5.0 l -5.0,8.6602540378444 l -8.6602540378444,-5.0 l 5.0,-8.6602540378444 Z" />

<path fill="none" stroke="black" 
d="M 70.980762113533,33.660254037844
 l 10,0 l 0,10 l -10,0 l 0,-10 Z" />
<path fill="none" stroke="black" 
d="M 80.980762113533,33.660254037844
 l 10,0 l 0,10 l -10,0 l 0,-10 Z" />
<path fill="none" stroke="black" 
d="M 70.980762113533,33.660254037844
 l 5.0,-8.6602540378444 l 5.0,8.6602540378444 l -10,0 Z" />
<path fill="none" stroke="black" 
d="M 75.980762113533,25.0
 l 5.0,8.6602540378444 l 5.0,-8.6602540378444 l -10,0 Z" />
<path fill="none" stroke="black" 
d="M 80.980762113533,33.660254037844
 l 5.0,-8.6602540378444 l 5.0,8.6602540378444 l -10,0 Z" />
<path fill="none" stroke="black" 
d="M 70.980762113533,43.660254037844
 l 5.0,8.6602540378444 l 5.0,-8.6602540378444 l -10,0 Z" />
<path fill="none" stroke="black" 
d="M 75.980762113533,52.320508075689
 l 5.0,-8.6602540378444 l 5.0,8.6602540378444 l -10,0 Z" />
<path fill="none" stroke="black" 
d="M 80.980762113533,43.660254037844
 l 5.0,8.6602540378444 l 5.0,-8.6602540378444 l -10,0 Z" />

<path fill="none" stroke="black" 
d="M 75.980762113533,5.0
 l 10,0 l 0,10 l -10,0 l 0,-10 Z" />
<path fill="none" stroke="black" 
d="M 75.980762113533,15.0
 l 10,0 l 0,10 l -10,0 l 0,-10 Z" />
<path fill="none" stroke="black" 
d="M 75.980762113533,5.0
 l -8.6602540378444,5.0 l 8.6602540378444,5.0 l 0,-10 Z" />
<path fill="none" stroke="black" 
d="M 67.320508075689,10.0
 l 8.6602540378444,5.0 l -8.6602540378444,5.0 l 0,-10 Z" />
<path fill="none" stroke="black" 
d="M 75.980762113533,15.0
 l -8.6602540378444,5.0 l 8.6602540378444,5.0 l 0,-10 Z" />
<path fill="none" stroke="black" 
d="M 85.980762113533,5.0
 l 8.6602540378444,5.0 l -8.6602540378444,5.0 l 0,-10 Z" />
<path fill="none" stroke="black" 
d="M 94.641016151378,10.0
 l -8.6602540378444,5.0 l 8.6602540378444,5.0 l 0,-10 Z" />
<path fill="none" stroke="black" 
d="M 85.980762113533,15.0
 l 8.6602540378444,5.0 l -8.6602540378444,5.0 l 0,-10 Z" />
<path fill="none" stroke="black" 
d="M 62.320508075689,1.3397459621556
 l 8.6602540378444,-5.0 l 5.0,8.6602540378444 l -8.6602540378444,5.0 l -5.0,-8.6602540378444 Z" />
<path fill="none" stroke="black" 
d="M 90.980762113533,-3.6602540378444
 l 8.6602540378444,5.0 l -5.0,8.6602540378444 l -8.6602540378444,-5.0 l 5.0,-8.6602540378444 Z" />

<path fill="none" stroke="black" 
d="M 52.320508075689,75.980762113533
 l 10,0 l 0,10 l -10,0 l 0,-10 Z" />
<path fill="none" stroke="black" 
d="M 52.320508075689,85.980762113533
 l 10,0 l 0,10 l -10,0 l 0,-10 Z" />
<path fill="none" stroke="black" 
d="M 52.320508075689,75.980762113533
 l -8.6602540378444,5.0 l 8.6602540378444,5.0 l 0,-10 Z" />
<path fill="none" stroke="black" 
d="M 43.660254037844,80.980762113533
 l 8.6602540378444,5.0 l -8.6602540378444,5.0 l 0,-10 Z" />
<path fill="none" stroke="black" 
d="M 52.320508075689,85.980762113533
 l -8.6602540378444,5.0 l 8.6602540378444,5.0 l 0,-10 Z" />
<path fill="none" stroke="black" 
d="M 62.320508075689,75.980762113533
 l 8.6602540378444,5.0 l -8.6602540378444,5.0 l 0,-10 Z" />
<path fill="none" stroke="black" 
d="M 70.980762113533,80.980762113533
 l -8.6602540378444,5.0 l 8.6602540378444,5.0 l 0,-10 Z" />
<path fill="none" stroke="black" 
d="M 62.320508075689,85.980762113533
 l 8.6602540378444,5.0 l -8.6602540378444,5.0 l 0,-10 Z" />
<path fill="none" stroke="black" 
d="M 38.660254037844,72.320508075689
 l 8.6602540378444,-5.0 l 5.0,8.6602540378444 l -8.6602540378444,5.0 l -5.0,-8.6602540378444 Z" />
<path fill="none" stroke="black" 
d="M 67.320508075689,67.320508075689
 l 8.6602540378444,5.0 l -5.0,8.6602540378444 l -8.6602540378444,-5.0 l 5.0,-8.6602540378444 Z" />

</svg>
