<svg viewBox="0 0 1500 1500" xmlns="http://www.w3.org/2000/svg">
<path fill="none" stroke="black" stroke-width="5" 
d="M 0.0,0.0
 l 100,0 l 0,100 l -100,0 l 0,-100 Z" />
<path fill="none" stroke="black" stroke-width="5" 
d="M 0.0,100.0
 l 100,0 l 0,100 l -100,0 l 0,-100 Z" />
<path fill="none" stroke="black" stroke-width="5" 
d="M 0.0,0.0
 l -86.602540378444,50.0 l 86.602540378444,50.0 l 0,-100 Z" />
<path fill="none" stroke="black" stroke-width="5" 
d="M -86.602540378444,50.0
 l 86.602540378444,50.0 l -86.602540378444,50.0 l 0,-100 Z" />
<path fill="none" stroke="black" stroke-width="5" 
d="M 0.0,100.0
 l -86.602540378444,50.0 l 86.602540378444,50.0 l 0,-100 Z" />
<path fill="none" stroke="black" stroke-width="5" 
d="M 100.0,0.0
 l 86.602540378444,50.0 l -86.602540378444,50.0 l 0,-100 Z" />
<path fill="none" stroke="black" stroke-width="5" 
d="M 186.60254037844,50.0
 l -86.602540378444,50.0 l 86.602540378444,50.0 l 0,-100 Z" />
<path fill="none" stroke="black" stroke-width="5" 
d="M 100.0,100.0
 l 86.602540378444,50.0 l -86.602540378444,50.0 l 0,-100 Z" />
<path fill="none" stroke="black" stroke-width="5" 
d="M -136.60254037844,-36.602540378444
 l 86.602540378444,-50.0 l 50.0,86.602540378444 l -86.602540378444,50.0 l -50.0,-86.602540378444 Z" />
<path fill="none" stroke="black" stroke-width="5" 
d="M 150.0,-86.602540378444
 l 86.602540378444,50.0 l -50.0,86.602540378444 l -86.602540378444,-50.0 l 50.0,-86.602540378444 Z" />

<path fill="none" stroke="black" stroke-width="5" 
d="M -50.0,286.60254037844
 l 100,0 l 0,100 l -100,0 l 0,-100 Z" />
<path fill="none" stroke="black" stroke-width="5" 
d="M 50.0,286.60254037844
 l 100,0 l 0,100 l -100,0 l 0,-100 Z" />
<path fill="none" stroke="black" stroke-width="5" 
d="M -50.0,286.60254037844
 l 50.0,-86.602540378444 l 50.0,86.602540378444 l -100,0 Z" />
<path fill="none" stroke="black" stroke-width="5" 
d="M 0.0,200.0
 l 50.0,86.602540378444 l 50.0,-86.602540378444 l -100,0 Z" />
<path fill="none" stroke="black" stroke-width="5" 
d="M 50.0,286.60254037844
 l 50.0,-86.602540378444 l 50.0,86.602540378444 l -100,0 Z" />
<path fill="none" stroke="black" stroke-width="5" 
d="M -50.0,386.60254037844
 l 50.0,86.602540378444 l 50.0,-86.602540378444 l -100,0 Z" />
<path fill="none" stroke="black" stroke-width="5" 
d="M 0.0,473.20508075689
 l 50.0,-86.602540378444 l 50.0,86.602540378444 l -100,0 Z" />
<path fill="none" stroke="black" stroke-width="5" 
d="M 50.0,386.60254037844
 l 50.0,86.602540378444 l 50.0,-86.602540378444 l -100,0 Z" />

<path fill="none" stroke="black" stroke-width="5" 
d="M 0.0,473.20508075689
 l 100,0 l 0,100 l -100,0 l 0,-100 Z" />
<path fill="none" stroke="black" stroke-width="5" 
d="M 0.0,573.20508075689
 l 100,0 l 0,100 l -100,0 l 0,-100 Z" />
<path fill="none" stroke="black" stroke-width="5" 
d="M 0.0,473.20508075689
 l -86.602540378444,50.0 l 86.602540378444,50.0 l 0,-100 Z" />
<path fill="none" stroke="black" stroke-width="5" 
d="M -86.602540378444,523.20508075689
 l 86.602540378444,50.0 l -86.602540378444,50.0 l 0,-100 Z" />
<path fill="none" stroke="black" stroke-width="5" 
d="M 0.0,573.20508075689
 l -86.602540378444,50.0 l 86.602540378444,50.0 l 0,-100 Z" />
<path fill="none" stroke="black" stroke-width="5" 
d="M 100.0,473.20508075689
 l 86.602540378444,50.0 l -86.602540378444,50.0 l 0,-100 Z" />
<path fill="none" stroke="black" stroke-width="5" 
d="M 186.60254037844,523.20508075689
 l -86.602540378444,50.0 l 86.602540378444,50.0 l 0,-100 Z" />
<path fill="none" stroke="black" stroke-width="5" 
d="M 100.0,573.20508075689
 l 86.602540378444,50.0 l -86.602540378444,50.0 l 0,-100 Z" />
<path fill="none" stroke="black" stroke-width="5" 
d="M -136.60254037844,436.60254037844
 l 86.602540378444,-50.0 l 50.0,86.602540378444 l -86.602540378444,50.0 l -50.0,-86.602540378444 Z" />
<path fill="none" stroke="black" stroke-width="5" 
d="M 150.0,386.60254037844
 l 86.602540378444,50.0 l -50.0,86.602540378444 l -86.602540378444,-50.0 l 50.0,-86.602540378444 Z" />

<path fill="none" stroke="black" stroke-width="5" 
d="M -50.0,759.80762113533
 l 100,0 l 0,100 l -100,0 l 0,-100 Z" />
<path fill="none" stroke="black" stroke-width="5" 
d="M 50.0,759.80762113533
 l 100,0 l 0,100 l -100,0 l 0,-100 Z" />
<path fill="none" stroke="black" stroke-width="5" 
d="M -50.0,759.80762113533
 l 50.0,-86.602540378444 l 50.0,86.602540378444 l -100,0 Z" />
<path fill="none" stroke="black" stroke-width="5" 
d="M 0.0,673.20508075689
 l 50.0,86.602540378444 l 50.0,-86.602540378444 l -100,0 Z" />
<path fill="none" stroke="black" stroke-width="5" 
d="M 50.0,759.80762113533
 l 50.0,-86.602540378444 l 50.0,86.602540378444 l -100,0 Z" />
<path fill="none" stroke="black" stroke-width="5" 
d="M -50.0,859.80762113533
 l 50.0,86.602540378444 l 50.0,-86.602540378444 l -100,0 Z" />
<path fill="none" stroke="black" stroke-width="5" 
d="M 0.0,946.41016151378
 l 50.0,-86.602540378444 l 50.0,86.602540378444 l -100,0 Z" />
<path fill="none" stroke="black" stroke-width="5" 
d="M 50.0,859.80762113533
 l 50.0,86.602540378444 l 50.0,-86.602540378444 l -100,0 Z" />

<path fill="none" stroke="black" stroke-width="5" 
d="M 0.0,946.41016151378
 l 100,0 l 0,100 l -100,0 l 0,-100 Z" />
<path fill="none" stroke="black" stroke-width="5" 
d="M 0.0,1046.4101615138
 l 100,0 l 0,100 l -100,0 l 0,-100 Z" />
<path fill="none" stroke="black" stroke-width="5" 
d="M 0.0,946.41016151378
 l -86.602540378444,50.0 l 86.602540378444,50.0 l 0,-100 Z" />
<path fill="none" stroke="black" stroke-width="5" 
d="M -86.602540378444,996.41016151378
 l 86.602540378444,50.0 l -86.602540378444,50.0 l 0,-100 Z" />
<path fill="none" stroke="black" stroke-width="5" 
d="M 0.0,1046.4101615138
 l -86.602540378444,50.0 l 86.602540378444,50.0 l 0,-100 Z" />
<path fill="none" stroke="black" stroke-width="5" 
d="M 100.0,946.41016151378
 l 86.602540378444,50.0 l -86.602540378444,50.0 l 0,-100 Z" />
<path fill="none" stroke="black" stroke-width="5" 
d="M 186.60254037844,996.41016151378
 l -86.602540378444,50.0 l 86.602540378444,50.0 l 0,-100 Z" />
<path fill="none" stroke="black" stroke-width="5" 
d="M 100.0,1046.4101615138
 l 86.602540378444,50.0 l -86.602540378444,50.0 l 0,-100 Z" />
<path fill="none" stroke="black" stroke-width="5" 
d="M -136.60254037844,909.80762113533
 l 86.602540378444,-50.0 l 50.0,86.602540378444 l -86.602540378444,50.0 l -50.0,-86.602540378444 Z" />
<path fill="none" stroke="black" stroke-width="5" 
d="M 150.0,859.80762113533
 l 86.602540378444,50.0 l -50.0,86.602540378444 l -86.602540378444,-50.0 l 50.0,-86.602540378444 Z" />

<path fill="none" stroke="black" stroke-width="5" 
d="M -50.0,1233.0127018922
 l 100,0 l 0,100 l -100,0 l 0,-100 Z" />
<path fill="none" stroke="black" stroke-width="5" 
d="M 50.0,1233.0127018922
 l 100,0 l 0,100 l -100,0 l 0,-100 Z" />
<path fill="none" stroke="black" stroke-width="5" 
d="M -50.0,1233.0127018922
 l 50.0,-86.602540378444 l 50.0,86.602540378444 l -100,0 Z" />
<path fill="none" stroke="black" stroke-width="5" 
d="M 0.0,1146.4101615138
 l 50.0,86.602540378444 l 50.0,-86.602540378444 l -100,0 Z" />
<path fill="none" stroke="black" stroke-width="5" 
d="M 50.0,1233.0127018922
 l 50.0,-86.602540378444 l 50.0,86.602540378444 l -100,0 Z" />
<path fill="none" stroke="black" stroke-width="5" 
d="M -50.0,1333.0127018922
 l 50.0,86.602540378444 l 50.0,-86.602540378444 l -100,0 Z" />
<path fill="none" stroke="black" stroke-width="5" 
d="M 0.0,1419.6152422707
 l 50.0,-86.602540378444 l 50.0,86.602540378444 l -100,0 Z" />
<path fill="none" stroke="black" stroke-width="5" 
d="M 50.0,1333.0127018922
 l 50.0,86.602540378444 l 50.0,-86.602540378444 l -100,0 Z" />

<path fill="none" stroke="black" stroke-width="5" 
d="M 0.0,1419.6152422707
 l 100,0 l 0,100 l -100,0 l 0,-100 Z" />
<path fill="none" stroke="black" stroke-width="5" 
d="M 0.0,1519.6152422707
 l 100,0 l 0,100 l -100,0 l 0,-100 Z" />
<path fill="none" stroke="black" stroke-width="5" 
d="M 0.0,1419.6152422707
 l -86.602540378444,50.0 l 86.602540378444,50.0 l 0,-100 Z" />
<path fill="none" stroke="black" stroke-width="5" 
d="M -86.602540378444,1469.6152422707
 l 86.602540378444,50.0 l -86.602540378444,50.0 l 0,-100 Z" />
<path fill="none" stroke="black" stroke-width="5" 
d="M 0.0,1519.6152422707
 l -86.602540378444,50.0 l 86.602540378444,50.0 l 0,-100 Z" />
<path fill="none" stroke="black" stroke-width="5" 
d="M 100.0,1419.6152422707
 l 86.602540378444,50.0 l -86.602540378444,50.0 l 0,-100 Z" />
<path fill="none" stroke="black" stroke-width="5" 
d="M 186.60254037844,1469.6152422707
 l -86.602540378444,50.0 l 86.602540378444,50.0 l 0,-100 Z" />
<path fill="none" stroke="black" stroke-width="5" 
d="M 100.0,1519.6152422707
 l 86.602540378444,50.0 l -86.602540378444,50.0 l 0,-100 Z" />
<path fill="none" stroke="black" stroke-width="5" 
d="M -136.60254037844,1383.0127018922
 l 86.602540378444,-50.0 l 50.0,86.602540378444 l -86.602540378444,50.0 l -50.0,-86.602540378444 Z" />
<path fill="none" stroke="black" stroke-width="5" 
d="M 150.0,1333.0127018922
 l 86.602540378444,50.0 l -50.0,86.602540378444 l -86.602540378444,-50.0 l 50.0,-86.602540378444 Z" />

<path fill="none" stroke="black" stroke-width="5" 
d="M -50.0,1706.2177826491
 l 100,0 l 0,100 l -100,0 l 0,-100 Z" />
<path fill="none" stroke="black" stroke-width="5" 
d="M 50.0,1706.2177826491
 l 100,0 l 0,100 l -100,0 l 0,-100 Z" />
<path fill="none" stroke="black" stroke-width="5" 
d="M -50.0,1706.2177826491
 l 50.0,-86.602540378444 l 50.0,86.602540378444 l -100,0 Z" />
<path fill="none" stroke="black" stroke-width="5" 
d="M 0.0,1619.6152422707
 l 50.0,86.602540378444 l 50.0,-86.602540378444 l -100,0 Z" />
<path fill="none" stroke="black" stroke-width="5" 
d="M 50.0,1706.2177826491
 l 50.0,-86.602540378444 l 50.0,86.602540378444 l -100,0 Z" />
<path fill="none" stroke="black" stroke-width="5" 
d="M -50.0,1806.2177826491
 l 50.0,86.602540378444 l 50.0,-86.602540378444 l -100,0 Z" />
<path fill="none" stroke="black" stroke-width="5" 
d="M 0.0,1892.8203230276
 l 50.0,-86.602540378444 l 50.0,86.602540378444 l -100,0 Z" />
<path fill="none" stroke="black" stroke-width="5" 
d="M 50.0,1806.2177826491
 l 50.0,86.602540378444 l 50.0,-86.602540378444 l -100,0 Z" />

<path fill="none" stroke="black" stroke-width="5" 
d="M 186.60254037844,50.0
 l 100,0 l 0,100 l -100,0 l 0,-100 Z" />
<path fill="none" stroke="black" stroke-width="5" 
d="M 286.60254037844,50.0
 l 100,0 l 0,100 l -100,0 l 0,-100 Z" />
<path fill="none" stroke="black" stroke-width="5" 
d="M 186.60254037844,50.0
 l 50.0,-86.602540378444 l 50.0,86.602540378444 l -100,0 Z" />
<path fill="none" stroke="black" stroke-width="5" 
d="M 236.60254037844,-36.602540378444
 l 50.0,86.602540378444 l 50.0,-86.602540378444 l -100,0 Z" />
<path fill="none" stroke="black" stroke-width="5" 
d="M 286.60254037844,50.0
 l 50.0,-86.602540378444 l 50.0,86.602540378444 l -100,0 Z" />
<path fill="none" stroke="black" stroke-width="5" 
d="M 186.60254037844,150.0
 l 50.0,86.602540378444 l 50.0,-86.602540378444 l -100,0 Z" />
<path fill="none" stroke="black" stroke-width="5" 
d="M 236.60254037844,236.60254037844
 l 50.0,-86.602540378444 l 50.0,86.602540378444 l -100,0 Z" />
<path fill="none" stroke="black" stroke-width="5" 
d="M 286.60254037844,150.0
 l 50.0,86.602540378444 l 50.0,-86.602540378444 l -100,0 Z" />

<path fill="none" stroke="black" stroke-width="5" 
d="M 236.60254037844,236.60254037844
 l 100,0 l 0,100 l -100,0 l 0,-100 Z" />
<path fill="none" stroke="black" stroke-width="5" 
d="M 236.60254037844,336.60254037844
 l 100,0 l 0,100 l -100,0 l 0,-100 Z" />
<path fill="none" stroke="black" stroke-width="5" 
d="M 236.60254037844,236.60254037844
 l -86.602540378444,50.0 l 86.602540378444,50.0 l 0,-100 Z" />
<path fill="none" stroke="black" stroke-width="5" 
d="M 150.0,286.60254037844
 l 86.602540378444,50.0 l -86.602540378444,50.0 l 0,-100 Z" />
<path fill="none" stroke="black" stroke-width="5" 
d="M 236.60254037844,336.60254037844
 l -86.602540378444,50.0 l 86.602540378444,50.0 l 0,-100 Z" />
<path fill="none" stroke="black" stroke-width="5" 
d="M 336.60254037844,236.60254037844
 l 86.602540378444,50.0 l -86.602540378444,50.0 l 0,-100 Z" />
<path fill="none" stroke="black" stroke-width="5" 
d="M 423.20508075689,286.60254037844
 l -86.602540378444,50.0 l 86.602540378444,50.0 l 0,-100 Z" />
<path fill="none" stroke="black" stroke-width="5" 
d="M 336.60254037844,336.60254037844
 l 86.602540378444,50.0 l -86.602540378444,50.0 l 0,-100 Z" />
<path fill="none" stroke="black" stroke-width="5" 
d="M 100.0,200.0
 l 86.602540378444,-50.0 l 50.0,86.602540378444 l -86.602540378444,50.0 l -50.0,-86.602540378444 Z" />
<path fill="none" stroke="black" stroke-width="5" 
d="M 386.60254037844,150.0
 l 86.602540378444,50.0 l -50.0,86.602540378444 l -86.602540378444,-50.0 l 50.0,-86.602540378444 Z" />

<path fill="none" stroke="black" stroke-width="5" 
d="M 186.60254037844,523.20508075689
 l 100,0 l 0,100 l -100,0 l 0,-100 Z" />
<path fill="none" stroke="black" stroke-width="5" 
d="M 286.60254037844,523.20508075689
 l 100,0 l 0,100 l -100,0 l 0,-100 Z" />
<path fill="none" stroke="black" stroke-width="5" 
d="M 186.60254037844,523.20508075689
 l 50.0,-86.602540378444 l 50.0,86.602540378444 l -100,0 Z" />
<path fill="none" stroke="black" stroke-width="5" 
d="M 236.60254037844,436.60254037844
 l 50.0,86.602540378444 l 50.0,-86.602540378444 l -100,0 Z" />
<path fill="none" stroke="black" stroke-width="5" 
d="M 286.60254037844,523.20508075689
 l 50.0,-86.602540378444 l 50.0,86.602540378444 l -100,0 Z" />
<path fill="none" stroke="black" stroke-width="5" 
d="M 186.60254037844,623.20508075689
 l 50.0,86.602540378444 l 50.0,-86.602540378444 l -100,0 Z" />
<path fill="none" stroke="black" stroke-width="5" 
d="M 236.60254037844,709.80762113533
 l 50.0,-86.602540378444 l 50.0,86.602540378444 l -100,0 Z" />
<path fill="none" stroke="black" stroke-width="5" 
d="M 286.60254037844,623.20508075689
 l 50.0,86.602540378444 l 50.0,-86.602540378444 l -100,0 Z" />

<path fill="none" stroke="black" stroke-width="5" 
d="M 236.60254037844,709.80762113533
 l 100,0 l 0,100 l -100,0 l 0,-100 Z" />
<path fill="none" stroke="black" stroke-width="5" 
d="M 236.60254037844,809.80762113533
 l 100,0 l 0,100 l -100,0 l 0,-100 Z" />
<path fill="none" stroke="black" stroke-width="5" 
d="M 236.60254037844,709.80762113533
 l -86.602540378444,50.0 l 86.602540378444,50.0 l 0,-100 Z" />
<path fill="none" stroke="black" stroke-width="5" 
d="M 150.0,759.80762113533
 l 86.602540378444,50.0 l -86.602540378444,50.0 l 0,-100 Z" />
<path fill="none" stroke="black" stroke-width="5" 
d="M 236.60254037844,809.80762113533
 l -86.602540378444,50.0 l 86.602540378444,50.0 l 0,-100 Z" />
<path fill="none" stroke="black" stroke-width="5" 
d="M 336.60254037844,709.80762113533
 l 86.602540378444,50.0 l -86.602540378444,50.0 l 0,-100 Z" />
<path fill="none" stroke="black" stroke-width="5" 
d="M 423.20508075689,759.80762113533
 l -86.602540378444,50.0 l 86.602540378444,50.0 l 0,-100 Z" />
<path fill="none" stroke="black" stroke-width="5" 
d="M 336.60254037844,809.80762113533
 l 86.602540378444,50.0 l -86.602540378444,50.0 l 0,-100 Z" />
<path fill="none" stroke="black" stroke-width="5" 
d="M 100.0,673.20508075689
 l 86.602540378444,-50.0 l 50.0,86.602540378444 l -86.602540378444,50.0 l -50.0,-86.602540378444 Z" />
<path fill="none" stroke="black" stroke-width="5" 
d="M 386.60254037844,623.20508075689
 l 86.602540378444,50.0 l -50.0,86.602540378444 l -86.602540378444,-50.0 l 50.0,-86.602540378444 Z" />

<path fill="none" stroke="black" stroke-width="5" 
d="M 186.60254037844,996.41016151378
 l 100,0 l 0,100 l -100,0 l 0,-100 Z" />
<path fill="none" stroke="black" stroke-width="5" 
d="M 286.60254037844,996.41016151378
 l 100,0 l 0,100 l -100,0 l 0,-100 Z" />
<path fill="none" stroke="black" stroke-width="5" 
d="M 186.60254037844,996.41016151378
 l 50.0,-86.602540378444 l 50.0,86.602540378444 l -100,0 Z" />
<path fill="none" stroke="black" stroke-width="5" 
d="M 236.60254037844,909.80762113533
 l 50.0,86.602540378444 l 50.0,-86.602540378444 l -100,0 Z" />
<path fill="none" stroke="black" stroke-width="5" 
d="M 286.60254037844,996.41016151378
 l 50.0,-86.602540378444 l 50.0,86.602540378444 l -100,0 Z" />
<path fill="none" stroke="black" stroke-width="5" 
d="M 186.60254037844,1096.4101615138
 l 50.0,86.602540378444 l 50.0,-86.602540378444 l -100,0 Z" />
<path fill="none" stroke="black" stroke-width="5" 
d="M 236.60254037844,1183.0127018922
 l 50.0,-86.602540378444 l 50.0,86.602540378444 l -100,0 Z" />
<path fill="none" stroke="black" stroke-width="5" 
d="M 286.60254037844,1096.4101615138
 l 50.0,86.602540378444 l 50.0,-86.602540378444 l -100,0 Z" />

<path fill="none" stroke="black" stroke-width="5" 
d="M 236.60254037844,1183.0127018922
 l 100,0 l 0,100 l -100,0 l 0,-100 Z" />
<path fill="none" stroke="black" stroke-width="5" 
d="M 236.60254037844,1283.0127018922
 l 100,0 l 0,100 l -100,0 l 0,-100 Z" />
<path fill="none" stroke="black" stroke-width="5" 
d="M 236.60254037844,1183.0127018922
 l -86.602540378444,50.0 l 86.602540378444,50.0 l 0,-100 Z" />
<path fill="none" stroke="black" stroke-width="5" 
d="M 150.0,1233.0127018922
 l 86.602540378444,50.0 l -86.602540378444,50.0 l 0,-100 Z" />
<path fill="none" stroke="black" stroke-width="5" 
d="M 236.60254037844,1283.0127018922
 l -86.602540378444,50.0 l 86.602540378444,50.0 l 0,-100 Z" />
<path fill="none" stroke="black" stroke-width="5" 
d="M 336.60254037844,1183.0127018922
 l 86.602540378444,50.0 l -86.602540378444,50.0 l 0,-100 Z" />
<path fill="none" stroke="black" stroke-width="5" 
d="M 423.20508075689,1233.0127018922
 l -86.602540378444,50.0 l 86.602540378444,50.0 l 0,-100 Z" />
<path fill="none" stroke="black" stroke-width="5" 
d="M 336.60254037844,1283.0127018922
 l 86.602540378444,50.0 l -86.602540378444,50.0 l 0,-100 Z" />
<path fill="none" stroke="black" stroke-width="5" 
d="M 100.0,1146.4101615138
 l 86.602540378444,-50.0 l 50.0,86.602540378444 l -86.602540378444,50.0 l -50.0,-86.602540378444 Z" />
<path fill="none" stroke="black" stroke-width="5" 
d="M 386.60254037844,1096.4101615138
 l 86.602540378444,50.0 l -50.0,86.602540378444 l -86.602540378444,-50.0 l 50.0,-86.602540378444 Z" />

<path fill="none" stroke="black" stroke-width="5" 
d="M 186.60254037844,1469.6152422707
 l 100,0 l 0,100 l -100,0 l 0,-100 Z" />
<path fill="none" stroke="black" stroke-width="5" 
d="M 286.60254037844,1469.6152422707
 l 100,0 l 0,100 l -100,0 l 0,-100 Z" />
<path fill="none" stroke="black" stroke-width="5" 
d="M 186.60254037844,1469.6152422707
 l 50.0,-86.602540378444 l 50.0,86.602540378444 l -100,0 Z" />
<path fill="none" stroke="black" stroke-width="5" 
d="M 236.60254037844,1383.0127018922
 l 50.0,86.602540378444 l 50.0,-86.602540378444 l -100,0 Z" />
<path fill="none" stroke="black" stroke-width="5" 
d="M 286.60254037844,1469.6152422707
 l 50.0,-86.602540378444 l 50.0,86.602540378444 l -100,0 Z" />
<path fill="none" stroke="black" stroke-width="5" 
d="M 186.60254037844,1569.6152422707
 l 50.0,86.602540378444 l 50.0,-86.602540378444 l -100,0 Z" />
<path fill="none" stroke="black" stroke-width="5" 
d="M 236.60254037844,1656.2177826491
 l 50.0,-86.602540378444 l 50.0,86.602540378444 l -100,0 Z" />
<path fill="none" stroke="black" stroke-width="5" 
d="M 286.60254037844,1569.6152422707
 l 50.0,86.602540378444 l 50.0,-86.602540378444 l -100,0 Z" />

<path fill="none" stroke="black" stroke-width="5" 
d="M 236.60254037844,1656.2177826491
 l 100,0 l 0,100 l -100,0 l 0,-100 Z" />
<path fill="none" stroke="black" stroke-width="5" 
d="M 236.60254037844,1756.2177826491
 l 100,0 l 0,100 l -100,0 l 0,-100 Z" />
<path fill="none" stroke="black" stroke-width="5" 
d="M 236.60254037844,1656.2177826491
 l -86.602540378444,50.0 l 86.602540378444,50.0 l 0,-100 Z" />
<path fill="none" stroke="black" stroke-width="5" 
d="M 150.0,1706.2177826491
 l 86.602540378444,50.0 l -86.602540378444,50.0 l 0,-100 Z" />
<path fill="none" stroke="black" stroke-width="5" 
d="M 236.60254037844,1756.2177826491
 l -86.602540378444,50.0 l 86.602540378444,50.0 l 0,-100 Z" />
<path fill="none" stroke="black" stroke-width="5" 
d="M 336.60254037844,1656.2177826491
 l 86.602540378444,50.0 l -86.602540378444,50.0 l 0,-100 Z" />
<path fill="none" stroke="black" stroke-width="5" 
d="M 423.20508075689,1706.2177826491
 l -86.602540378444,50.0 l 86.602540378444,50.0 l 0,-100 Z" />
<path fill="none" stroke="black" stroke-width="5" 
d="M 336.60254037844,1756.2177826491
 l 86.602540378444,50.0 l -86.602540378444,50.0 l 0,-100 Z" />
<path fill="none" stroke="black" stroke-width="5" 
d="M 100.0,1619.6152422707
 l 86.602540378444,-50.0 l 50.0,86.602540378444 l -86.602540378444,50.0 l -50.0,-86.602540378444 Z" />
<path fill="none" stroke="black" stroke-width="5" 
d="M 386.60254037844,1569.6152422707
 l 86.602540378444,50.0 l -50.0,86.602540378444 l -86.602540378444,-50.0 l 50.0,-86.602540378444 Z" />

<path fill="none" stroke="black" stroke-width="5" 
d="M 473.20508075689,0.0
 l 100,0 l 0,100 l -100,0 l 0,-100 Z" />
<path fill="none" stroke="black" stroke-width="5" 
d="M 473.20508075689,100.0
 l 100,0 l 0,100 l -100,0 l 0,-100 Z" />
<path fill="none" stroke="black" stroke-width="5" 
d="M 473.20508075689,0.0
 l -86.602540378444,50.0 l 86.602540378444,50.0 l 0,-100 Z" />
<path fill="none" stroke="black" stroke-width="5" 
d="M 386.60254037844,50.0
 l 86.602540378444,50.0 l -86.602540378444,50.0 l 0,-100 Z" />
<path fill="none" stroke="black" stroke-width="5" 
d="M 473.20508075689,100.0
 l -86.602540378444,50.0 l 86.602540378444,50.0 l 0,-100 Z" />
<path fill="none" stroke="black" stroke-width="5" 
d="M 573.20508075689,0.0
 l 86.602540378444,50.0 l -86.602540378444,50.0 l 0,-100 Z" />
<path fill="none" stroke="black" stroke-width="5" 
d="M 659.80762113533,50.0
 l -86.602540378444,50.0 l 86.602540378444,50.0 l 0,-100 Z" />
<path fill="none" stroke="black" stroke-width="5" 
d="M 573.20508075689,100.0
 l 86.602540378444,50.0 l -86.602540378444,50.0 l 0,-100 Z" />
<path fill="none" stroke="black" stroke-width="5" 
d="M 336.60254037844,-36.602540378444
 l 86.602540378444,-50.0 l 50.0,86.602540378444 l -86.602540378444,50.0 l -50.0,-86.602540378444 Z" />
<path fill="none" stroke="black" stroke-width="5" 
d="M 623.20508075689,-86.602540378444
 l 86.602540378444,50.0 l -50.0,86.602540378444 l -86.602540378444,-50.0 l 50.0,-86.602540378444 Z" />

<path fill="none" stroke="black" stroke-width="5" 
d="M 423.20508075689,286.60254037844
 l 100,0 l 0,100 l -100,0 l 0,-100 Z" />
<path fill="none" stroke="black" stroke-width="5" 
d="M 523.20508075689,286.60254037844
 l 100,0 l 0,100 l -100,0 l 0,-100 Z" />
<path fill="none" stroke="black" stroke-width="5" 
d="M 423.20508075689,286.60254037844
 l 50.0,-86.602540378444 l 50.0,86.602540378444 l -100,0 Z" />
<path fill="none" stroke="black" stroke-width="5" 
d="M 473.20508075689,200.0
 l 50.0,86.602540378444 l 50.0,-86.602540378444 l -100,0 Z" />
<path fill="none" stroke="black" stroke-width="5" 
d="M 523.20508075689,286.60254037844
 l 50.0,-86.602540378444 l 50.0,86.602540378444 l -100,0 Z" />
<path fill="none" stroke="black" stroke-width="5" 
d="M 423.20508075689,386.60254037844
 l 50.0,86.602540378444 l 50.0,-86.602540378444 l -100,0 Z" />
<path fill="none" stroke="black" stroke-width="5" 
d="M 473.20508075689,473.20508075689
 l 50.0,-86.602540378444 l 50.0,86.602540378444 l -100,0 Z" />
<path fill="none" stroke="black" stroke-width="5" 
d="M 523.20508075689,386.60254037844
 l 50.0,86.602540378444 l 50.0,-86.602540378444 l -100,0 Z" />

<path fill="none" stroke="black" stroke-width="5" 
d="M 473.20508075689,473.20508075689
 l 100,0 l 0,100 l -100,0 l 0,-100 Z" />
<path fill="none" stroke="black" stroke-width="5" 
d="M 473.20508075689,573.20508075689
 l 100,0 l 0,100 l -100,0 l 0,-100 Z" />
<path fill="none" stroke="black" stroke-width="5" 
d="M 473.20508075689,473.20508075689
 l -86.602540378444,50.0 l 86.602540378444,50.0 l 0,-100 Z" />
<path fill="none" stroke="black" stroke-width="5" 
d="M 386.60254037844,523.20508075689
 l 86.602540378444,50.0 l -86.602540378444,50.0 l 0,-100 Z" />
<path fill="none" stroke="black" stroke-width="5" 
d="M 473.20508075689,573.20508075689
 l -86.602540378444,50.0 l 86.602540378444,50.0 l 0,-100 Z" />
<path fill="none" stroke="black" stroke-width="5" 
d="M 573.20508075689,473.20508075689
 l 86.602540378444,50.0 l -86.602540378444,50.0 l 0,-100 Z" />
<path fill="none" stroke="black" stroke-width="5" 
d="M 659.80762113533,523.20508075689
 l -86.602540378444,50.0 l 86.602540378444,50.0 l 0,-100 Z" />
<path fill="none" stroke="black" stroke-width="5" 
d="M 573.20508075689,573.20508075689
 l 86.602540378444,50.0 l -86.602540378444,50.0 l 0,-100 Z" />
<path fill="none" stroke="black" stroke-width="5" 
d="M 336.60254037844,436.60254037844
 l 86.602540378444,-50.0 l 50.0,86.602540378444 l -86.602540378444,50.0 l -50.0,-86.602540378444 Z" />
<path fill="none" stroke="black" stroke-width="5" 
d="M 623.20508075689,386.60254037844
 l 86.602540378444,50.0 l -50.0,86.602540378444 l -86.602540378444,-50.0 l 50.0,-86.602540378444 Z" />

<path fill="none" stroke="black" stroke-width="5" 
d="M 423.20508075689,759.80762113533
 l 100,0 l 0,100 l -100,0 l 0,-100 Z" />
<path fill="none" stroke="black" stroke-width="5" 
d="M 523.20508075689,759.80762113533
 l 100,0 l 0,100 l -100,0 l 0,-100 Z" />
<path fill="none" stroke="black" stroke-width="5" 
d="M 423.20508075689,759.80762113533
 l 50.0,-86.602540378444 l 50.0,86.602540378444 l -100,0 Z" />
<path fill="none" stroke="black" stroke-width="5" 
d="M 473.20508075689,673.20508075689
 l 50.0,86.602540378444 l 50.0,-86.602540378444 l -100,0 Z" />
<path fill="none" stroke="black" stroke-width="5" 
d="M 523.20508075689,759.80762113533
 l 50.0,-86.602540378444 l 50.0,86.602540378444 l -100,0 Z" />
<path fill="none" stroke="black" stroke-width="5" 
d="M 423.20508075689,859.80762113533
 l 50.0,86.602540378444 l 50.0,-86.602540378444 l -100,0 Z" />
<path fill="none" stroke="black" stroke-width="5" 
d="M 473.20508075689,946.41016151378
 l 50.0,-86.602540378444 l 50.0,86.602540378444 l -100,0 Z" />
<path fill="none" stroke="black" stroke-width="5" 
d="M 523.20508075689,859.80762113533
 l 50.0,86.602540378444 l 50.0,-86.602540378444 l -100,0 Z" />

<path fill="none" stroke="black" stroke-width="5" 
d="M 473.20508075689,946.41016151378
 l 100,0 l 0,100 l -100,0 l 0,-100 Z" />
<path fill="none" stroke="black" stroke-width="5" 
d="M 473.20508075689,1046.4101615138
 l 100,0 l 0,100 l -100,0 l 0,-100 Z" />
<path fill="none" stroke="black" stroke-width="5" 
d="M 473.20508075689,946.41016151378
 l -86.602540378444,50.0 l 86.602540378444,50.0 l 0,-100 Z" />
<path fill="none" stroke="black" stroke-width="5" 
d="M 386.60254037844,996.41016151378
 l 86.602540378444,50.0 l -86.602540378444,50.0 l 0,-100 Z" />
<path fill="none" stroke="black" stroke-width="5" 
d="M 473.20508075689,1046.4101615138
 l -86.602540378444,50.0 l 86.602540378444,50.0 l 0,-100 Z" />
<path fill="none" stroke="black" stroke-width="5" 
d="M 573.20508075689,946.41016151378
 l 86.602540378444,50.0 l -86.602540378444,50.0 l 0,-100 Z" />
<path fill="none" stroke="black" stroke-width="5" 
d="M 659.80762113533,996.41016151378
 l -86.602540378444,50.0 l 86.602540378444,50.0 l 0,-100 Z" />
<path fill="none" stroke="black" stroke-width="5" 
d="M 573.20508075689,1046.4101615138
 l 86.602540378444,50.0 l -86.602540378444,50.0 l 0,-100 Z" />
<path fill="none" stroke="black" stroke-width="5" 
d="M 336.60254037844,909.80762113533
 l 86.602540378444,-50.0 l 50.0,86.602540378444 l -86.602540378444,50.0 l -50.0,-86.602540378444 Z" />
<path fill="none" stroke="black" stroke-width="5" 
d="M 623.20508075689,859.80762113533
 l 86.602540378444,50.0 l -50.0,86.602540378444 l -86.602540378444,-50.0 l 50.0,-86.602540378444 Z" />

<path fill="none" stroke="black" stroke-width="5" 
d="M 423.20508075689,1233.0127018922
 l 100,0 l 0,100 l -100,0 l 0,-100 Z" />
<path fill="none" stroke="black" stroke-width="5" 
d="M 523.20508075689,1233.0127018922
 l 100,0 l 0,100 l -100,0 l 0,-100 Z" />
<path fill="none" stroke="black" stroke-width="5" 
d="M 423.20508075689,1233.0127018922
 l 50.0,-86.602540378444 l 50.0,86.602540378444 l -100,0 Z" />
<path fill="none" stroke="black" stroke-width="5" 
d="M 473.20508075689,1146.4101615138
 l 50.0,86.602540378444 l 50.0,-86.602540378444 l -100,0 Z" />
<path fill="none" stroke="black" stroke-width="5" 
d="M 523.20508075689,1233.0127018922
 l 50.0,-86.602540378444 l 50.0,86.602540378444 l -100,0 Z" />
<path fill="none" stroke="black" stroke-width="5" 
d="M 423.20508075689,1333.0127018922
 l 50.0,86.602540378444 l 50.0,-86.602540378444 l -100,0 Z" />
<path fill="none" stroke="black" stroke-width="5" 
d="M 473.20508075689,1419.6152422707
 l 50.0,-86.602540378444 l 50.0,86.602540378444 l -100,0 Z" />
<path fill="none" stroke="black" stroke-width="5" 
d="M 523.20508075689,1333.0127018922
 l 50.0,86.602540378444 l 50.0,-86.602540378444 l -100,0 Z" />

<path fill="none" stroke="black" stroke-width="5" 
d="M 473.20508075689,1419.6152422707
 l 100,0 l 0,100 l -100,0 l 0,-100 Z" />
<path fill="none" stroke="black" stroke-width="5" 
d="M 473.20508075689,1519.6152422707
 l 100,0 l 0,100 l -100,0 l 0,-100 Z" />
<path fill="none" stroke="black" stroke-width="5" 
d="M 473.20508075689,1419.6152422707
 l -86.602540378444,50.0 l 86.602540378444,50.0 l 0,-100 Z" />
<path fill="none" stroke="black" stroke-width="5" 
d="M 386.60254037844,1469.6152422707
 l 86.602540378444,50.0 l -86.602540378444,50.0 l 0,-100 Z" />
<path fill="none" stroke="black" stroke-width="5" 
d="M 473.20508075689,1519.6152422707
 l -86.602540378444,50.0 l 86.602540378444,50.0 l 0,-100 Z" />
<path fill="none" stroke="black" stroke-width="5" 
d="M 573.20508075689,1419.6152422707
 l 86.602540378444,50.0 l -86.602540378444,50.0 l 0,-100 Z" />
<path fill="none" stroke="black" stroke-width="5" 
d="M 659.80762113533,1469.6152422707
 l -86.602540378444,50.0 l 86.602540378444,50.0 l 0,-100 Z" />
<path fill="none" stroke="black" stroke-width="5" 
d="M 573.20508075689,1519.6152422707
 l 86.602540378444,50.0 l -86.602540378444,50.0 l 0,-100 Z" />
<path fill="none" stroke="black" stroke-width="5" 
d="M 336.60254037844,1383.0127018922
 l 86.602540378444,-50.0 l 50.0,86.602540378444 l -86.602540378444,50.0 l -50.0,-86.602540378444 Z" />
<path fill="none" stroke="black" stroke-width="5" 
d="M 623.20508075689,1333.0127018922
 l 86.602540378444,50.0 l -50.0,86.602540378444 l -86.602540378444,-50.0 l 50.0,-86.602540378444 Z" />

<path fill="none" stroke="black" stroke-width="5" 
d="M 423.20508075689,1706.2177826491
 l 100,0 l 0,100 l -100,0 l 0,-100 Z" />
<path fill="none" stroke="black" stroke-width="5" 
d="M 523.20508075689,1706.2177826491
 l 100,0 l 0,100 l -100,0 l 0,-100 Z" />
<path fill="none" stroke="black" stroke-width="5" 
d="M 423.20508075689,1706.2177826491
 l 50.0,-86.602540378444 l 50.0,86.602540378444 l -100,0 Z" />
<path fill="none" stroke="black" stroke-width="5" 
d="M 473.20508075689,1619.6152422707
 l 50.0,86.602540378444 l 50.0,-86.602540378444 l -100,0 Z" />
<path fill="none" stroke="black" stroke-width="5" 
d="M 523.20508075689,1706.2177826491
 l 50.0,-86.602540378444 l 50.0,86.602540378444 l -100,0 Z" />
<path fill="none" stroke="black" stroke-width="5" 
d="M 423.20508075689,1806.2177826491
 l 50.0,86.602540378444 l 50.0,-86.602540378444 l -100,0 Z" />
<path fill="none" stroke="black" stroke-width="5" 
d="M 473.20508075689,1892.8203230276
 l 50.0,-86.602540378444 l 50.0,86.602540378444 l -100,0 Z" />
<path fill="none" stroke="black" stroke-width="5" 
d="M 523.20508075689,1806.2177826491
 l 50.0,86.602540378444 l 50.0,-86.602540378444 l -100,0 Z" />

<path fill="none" stroke="black" stroke-width="5" 
d="M 659.80762113533,50.0
 l 100,0 l 0,100 l -100,0 l 0,-100 Z" />
<path fill="none" stroke="black" stroke-width="5" 
d="M 759.80762113533,50.0
 l 100,0 l 0,100 l -100,0 l 0,-100 Z" />
<path fill="none" stroke="black" stroke-width="5" 
d="M 659.80762113533,50.0
 l 50.0,-86.602540378444 l 50.0,86.602540378444 l -100,0 Z" />
<path fill="none" stroke="black" stroke-width="5" 
d="M 709.80762113533,-36.602540378444
 l 50.0,86.602540378444 l 50.0,-86.602540378444 l -100,0 Z" />
<path fill="none" stroke="black" stroke-width="5" 
d="M 759.80762113533,50.0
 l 50.0,-86.602540378444 l 50.0,86.602540378444 l -100,0 Z" />
<path fill="none" stroke="black" stroke-width="5" 
d="M 659.80762113533,150.0
 l 50.0,86.602540378444 l 50.0,-86.602540378444 l -100,0 Z" />
<path fill="none" stroke="black" stroke-width="5" 
d="M 709.80762113533,236.60254037844
 l 50.0,-86.602540378444 l 50.0,86.602540378444 l -100,0 Z" />
<path fill="none" stroke="black" stroke-width="5" 
d="M 759.80762113533,150.0
 l 50.0,86.602540378444 l 50.0,-86.602540378444 l -100,0 Z" />

<path fill="none" stroke="black" stroke-width="5" 
d="M 709.80762113533,236.60254037844
 l 100,0 l 0,100 l -100,0 l 0,-100 Z" />
<path fill="none" stroke="black" stroke-width="5" 
d="M 709.80762113533,336.60254037844
 l 100,0 l 0,100 l -100,0 l 0,-100 Z" />
<path fill="none" stroke="black" stroke-width="5" 
d="M 709.80762113533,236.60254037844
 l -86.602540378444,50.0 l 86.602540378444,50.0 l 0,-100 Z" />
<path fill="none" stroke="black" stroke-width="5" 
d="M 623.20508075689,286.60254037844
 l 86.602540378444,50.0 l -86.602540378444,50.0 l 0,-100 Z" />
<path fill="none" stroke="black" stroke-width="5" 
d="M 709.80762113533,336.60254037844
 l -86.602540378444,50.0 l 86.602540378444,50.0 l 0,-100 Z" />
<path fill="none" stroke="black" stroke-width="5" 
d="M 809.80762113533,236.60254037844
 l 86.602540378444,50.0 l -86.602540378444,50.0 l 0,-100 Z" />
<path fill="none" stroke="black" stroke-width="5" 
d="M 896.41016151378,286.60254037844
 l -86.602540378444,50.0 l 86.602540378444,50.0 l 0,-100 Z" />
<path fill="none" stroke="black" stroke-width="5" 
d="M 809.80762113533,336.60254037844
 l 86.602540378444,50.0 l -86.602540378444,50.0 l 0,-100 Z" />
<path fill="none" stroke="black" stroke-width="5" 
d="M 573.20508075689,200.0
 l 86.602540378444,-50.0 l 50.0,86.602540378444 l -86.602540378444,50.0 l -50.0,-86.602540378444 Z" />
<path fill="none" stroke="black" stroke-width="5" 
d="M 859.80762113533,150.0
 l 86.602540378444,50.0 l -50.0,86.602540378444 l -86.602540378444,-50.0 l 50.0,-86.602540378444 Z" />

<path fill="none" stroke="black" stroke-width="5" 
d="M 659.80762113533,523.20508075689
 l 100,0 l 0,100 l -100,0 l 0,-100 Z" />
<path fill="none" stroke="black" stroke-width="5" 
d="M 759.80762113533,523.20508075689
 l 100,0 l 0,100 l -100,0 l 0,-100 Z" />
<path fill="none" stroke="black" stroke-width="5" 
d="M 659.80762113533,523.20508075689
 l 50.0,-86.602540378444 l 50.0,86.602540378444 l -100,0 Z" />
<path fill="none" stroke="black" stroke-width="5" 
d="M 709.80762113533,436.60254037844
 l 50.0,86.602540378444 l 50.0,-86.602540378444 l -100,0 Z" />
<path fill="none" stroke="black" stroke-width="5" 
d="M 759.80762113533,523.20508075689
 l 50.0,-86.602540378444 l 50.0,86.602540378444 l -100,0 Z" />
<path fill="none" stroke="black" stroke-width="5" 
d="M 659.80762113533,623.20508075689
 l 50.0,86.602540378444 l 50.0,-86.602540378444 l -100,0 Z" />
<path fill="none" stroke="black" stroke-width="5" 
d="M 709.80762113533,709.80762113533
 l 50.0,-86.602540378444 l 50.0,86.602540378444 l -100,0 Z" />
<path fill="none" stroke="black" stroke-width="5" 
d="M 759.80762113533,623.20508075689
 l 50.0,86.602540378444 l 50.0,-86.602540378444 l -100,0 Z" />

<path fill="none" stroke="black" stroke-width="5" 
d="M 709.80762113533,709.80762113533
 l 100,0 l 0,100 l -100,0 l 0,-100 Z" />
<path fill="none" stroke="black" stroke-width="5" 
d="M 709.80762113533,809.80762113533
 l 100,0 l 0,100 l -100,0 l 0,-100 Z" />
<path fill="none" stroke="black" stroke-width="5" 
d="M 709.80762113533,709.80762113533
 l -86.602540378444,50.0 l 86.602540378444,50.0 l 0,-100 Z" />
<path fill="none" stroke="black" stroke-width="5" 
d="M 623.20508075689,759.80762113533
 l 86.602540378444,50.0 l -86.602540378444,50.0 l 0,-100 Z" />
<path fill="none" stroke="black" stroke-width="5" 
d="M 709.80762113533,809.80762113533
 l -86.602540378444,50.0 l 86.602540378444,50.0 l 0,-100 Z" />
<path fill="none" stroke="black" stroke-width="5" 
d="M 809.80762113533,709.80762113533
 l 86.602540378444,50.0 l -86.602540378444,50.0 l 0,-100 Z" />
<path fill="none" stroke="black" stroke-width="5" 
d="M 896.41016151378,759.80762113533
 l -86.602540378444,50.0 l 86.602540378444,50.0 l 0,-100 Z" />
<path fill="none" stroke="black" stroke-width="5" 
d="M 809.80762113533,809.80762113533
 l 86.602540378444,50.0 l -86.602540378444,50.0 l 0,-100 Z" />
<path fill="none" stroke="black" stroke-width="5" 
d="M 573.20508075689,673.20508075689
 l 86.602540378444,-50.0 l 50.0,86.602540378444 l -86.602540378444,50.0 l -50.0,-86.602540378444 Z" />
<path fill="none" stroke="black" stroke-width="5" 
d="M 859.80762113533,623.20508075689
 l 86.602540378444,50.0 l -50.0,86.602540378444 l -86.602540378444,-50.0 l 50.0,-86.602540378444 Z" />

<path fill="none" stroke="black" stroke-width="5" 
d="M 659.80762113533,996.41016151378
 l 100,0 l 0,100 l -100,0 l 0,-100 Z" />
<path fill="none" stroke="black" stroke-width="5" 
d="M 759.80762113533,996.41016151378
 l 100,0 l 0,100 l -100,0 l 0,-100 Z" />
<path fill="none" stroke="black" stroke-width="5" 
d="M 659.80762113533,996.41016151378
 l 50.0,-86.602540378444 l 50.0,86.602540378444 l -100,0 Z" />
<path fill="none" stroke="black" stroke-width="5" 
d="M 709.80762113533,909.80762113533
 l 50.0,86.602540378444 l 50.0,-86.602540378444 l -100,0 Z" />
<path fill="none" stroke="black" stroke-width="5" 
d="M 759.80762113533,996.41016151378
 l 50.0,-86.602540378444 l 50.0,86.602540378444 l -100,0 Z" />
<path fill="none" stroke="black" stroke-width="5" 
d="M 659.80762113533,1096.4101615138
 l 50.0,86.602540378444 l 50.0,-86.602540378444 l -100,0 Z" />
<path fill="none" stroke="black" stroke-width="5" 
d="M 709.80762113533,1183.0127018922
 l 50.0,-86.602540378444 l 50.0,86.602540378444 l -100,0 Z" />
<path fill="none" stroke="black" stroke-width="5" 
d="M 759.80762113533,1096.4101615138
 l 50.0,86.602540378444 l 50.0,-86.602540378444 l -100,0 Z" />

<path fill="none" stroke="black" stroke-width="5" 
d="M 709.80762113533,1183.0127018922
 l 100,0 l 0,100 l -100,0 l 0,-100 Z" />
<path fill="none" stroke="black" stroke-width="5" 
d="M 709.80762113533,1283.0127018922
 l 100,0 l 0,100 l -100,0 l 0,-100 Z" />
<path fill="none" stroke="black" stroke-width="5" 
d="M 709.80762113533,1183.0127018922
 l -86.602540378444,50.0 l 86.602540378444,50.0 l 0,-100 Z" />
<path fill="none" stroke="black" stroke-width="5" 
d="M 623.20508075689,1233.0127018922
 l 86.602540378444,50.0 l -86.602540378444,50.0 l 0,-100 Z" />
<path fill="none" stroke="black" stroke-width="5" 
d="M 709.80762113533,1283.0127018922
 l -86.602540378444,50.0 l 86.602540378444,50.0 l 0,-100 Z" />
<path fill="none" stroke="black" stroke-width="5" 
d="M 809.80762113533,1183.0127018922
 l 86.602540378444,50.0 l -86.602540378444,50.0 l 0,-100 Z" />
<path fill="none" stroke="black" stroke-width="5" 
d="M 896.41016151378,1233.0127018922
 l -86.602540378444,50.0 l 86.602540378444,50.0 l 0,-100 Z" />
<path fill="none" stroke="black" stroke-width="5" 
d="M 809.80762113533,1283.0127018922
 l 86.602540378444,50.0 l -86.602540378444,50.0 l 0,-100 Z" />
<path fill="none" stroke="black" stroke-width="5" 
d="M 573.20508075689,1146.4101615138
 l 86.602540378444,-50.0 l 50.0,86.602540378444 l -86.602540378444,50.0 l -50.0,-86.602540378444 Z" />
<path fill="none" stroke="black" stroke-width="5" 
d="M 859.80762113533,1096.4101615138
 l 86.602540378444,50.0 l -50.0,86.602540378444 l -86.602540378444,-50.0 l 50.0,-86.602540378444 Z" />

<path fill="none" stroke="black" stroke-width="5" 
d="M 659.80762113533,1469.6152422707
 l 100,0 l 0,100 l -100,0 l 0,-100 Z" />
<path fill="none" stroke="black" stroke-width="5" 
d="M 759.80762113533,1469.6152422707
 l 100,0 l 0,100 l -100,0 l 0,-100 Z" />
<path fill="none" stroke="black" stroke-width="5" 
d="M 659.80762113533,1469.6152422707
 l 50.0,-86.602540378444 l 50.0,86.602540378444 l -100,0 Z" />
<path fill="none" stroke="black" stroke-width="5" 
d="M 709.80762113533,1383.0127018922
 l 50.0,86.602540378444 l 50.0,-86.602540378444 l -100,0 Z" />
<path fill="none" stroke="black" stroke-width="5" 
d="M 759.80762113533,1469.6152422707
 l 50.0,-86.602540378444 l 50.0,86.602540378444 l -100,0 Z" />
<path fill="none" stroke="black" stroke-width="5" 
d="M 659.80762113533,1569.6152422707
 l 50.0,86.602540378444 l 50.0,-86.602540378444 l -100,0 Z" />
<path fill="none" stroke="black" stroke-width="5" 
d="M 709.80762113533,1656.2177826491
 l 50.0,-86.602540378444 l 50.0,86.602540378444 l -100,0 Z" />
<path fill="none" stroke="black" stroke-width="5" 
d="M 759.80762113533,1569.6152422707
 l 50.0,86.602540378444 l 50.0,-86.602540378444 l -100,0 Z" />

<path fill="none" stroke="black" stroke-width="5" 
d="M 709.80762113533,1656.2177826491
 l 100,0 l 0,100 l -100,0 l 0,-100 Z" />
<path fill="none" stroke="black" stroke-width="5" 
d="M 709.80762113533,1756.2177826491
 l 100,0 l 0,100 l -100,0 l 0,-100 Z" />
<path fill="none" stroke="black" stroke-width="5" 
d="M 709.80762113533,1656.2177826491
 l -86.602540378444,50.0 l 86.602540378444,50.0 l 0,-100 Z" />
<path fill="none" stroke="black" stroke-width="5" 
d="M 623.20508075689,1706.2177826491
 l 86.602540378444,50.0 l -86.602540378444,50.0 l 0,-100 Z" />
<path fill="none" stroke="black" stroke-width="5" 
d="M 709.80762113533,1756.2177826491
 l -86.602540378444,50.0 l 86.602540378444,50.0 l 0,-100 Z" />
<path fill="none" stroke="black" stroke-width="5" 
d="M 809.80762113533,1656.2177826491
 l 86.602540378444,50.0 l -86.602540378444,50.0 l 0,-100 Z" />
<path fill="none" stroke="black" stroke-width="5" 
d="M 896.41016151378,1706.2177826491
 l -86.602540378444,50.0 l 86.602540378444,50.0 l 0,-100 Z" />
<path fill="none" stroke="black" stroke-width="5" 
d="M 809.80762113533,1756.2177826491
 l 86.602540378444,50.0 l -86.602540378444,50.0 l 0,-100 Z" />
<path fill="none" stroke="black" stroke-width="5" 
d="M 573.20508075689,1619.6152422707
 l 86.602540378444,-50.0 l 50.0,86.602540378444 l -86.602540378444,50.0 l -50.0,-86.602540378444 Z" />
<path fill="none" stroke="black" stroke-width="5" 
d="M 859.80762113533,1569.6152422707
 l 86.602540378444,50.0 l -50.0,86.602540378444 l -86.602540378444,-50.0 l 50.0,-86.602540378444 Z" />

<path fill="none" stroke="black" stroke-width="5" 
d="M 946.41016151378,0.0
 l 100,0 l 0,100 l -100,0 l 0,-100 Z" />
<path fill="none" stroke="black" stroke-width="5" 
d="M 946.41016151378,100.0
 l 100,0 l 0,100 l -100,0 l 0,-100 Z" />
<path fill="none" stroke="black" stroke-width="5" 
d="M 946.41016151378,0.0
 l -86.602540378444,50.0 l 86.602540378444,50.0 l 0,-100 Z" />
<path fill="none" stroke="black" stroke-width="5" 
d="M 859.80762113533,50.0
 l 86.602540378444,50.0 l -86.602540378444,50.0 l 0,-100 Z" />
<path fill="none" stroke="black" stroke-width="5" 
d="M 946.41016151378,100.0
 l -86.602540378444,50.0 l 86.602540378444,50.0 l 0,-100 Z" />
<path fill="none" stroke="black" stroke-width="5" 
d="M 1046.4101615138,0.0
 l 86.602540378444,50.0 l -86.602540378444,50.0 l 0,-100 Z" />
<path fill="none" stroke="black" stroke-width="5" 
d="M 1133.0127018922,50.0
 l -86.602540378444,50.0 l 86.602540378444,50.0 l 0,-100 Z" />
<path fill="none" stroke="black" stroke-width="5" 
d="M 1046.4101615138,100.0
 l 86.602540378444,50.0 l -86.602540378444,50.0 l 0,-100 Z" />
<path fill="none" stroke="black" stroke-width="5" 
d="M 809.80762113533,-36.602540378444
 l 86.602540378444,-50.0 l 50.0,86.602540378444 l -86.602540378444,50.0 l -50.0,-86.602540378444 Z" />
<path fill="none" stroke="black" stroke-width="5" 
d="M 1096.4101615138,-86.602540378444
 l 86.602540378444,50.0 l -50.0,86.602540378444 l -86.602540378444,-50.0 l 50.0,-86.602540378444 Z" />

<path fill="none" stroke="black" stroke-width="5" 
d="M 896.41016151378,286.60254037844
 l 100,0 l 0,100 l -100,0 l 0,-100 Z" />
<path fill="none" stroke="black" stroke-width="5" 
d="M 996.41016151378,286.60254037844
 l 100,0 l 0,100 l -100,0 l 0,-100 Z" />
<path fill="none" stroke="black" stroke-width="5" 
d="M 896.41016151378,286.60254037844
 l 50.0,-86.602540378444 l 50.0,86.602540378444 l -100,0 Z" />
<path fill="none" stroke="black" stroke-width="5" 
d="M 946.41016151378,200.0
 l 50.0,86.602540378444 l 50.0,-86.602540378444 l -100,0 Z" />
<path fill="none" stroke="black" stroke-width="5" 
d="M 996.41016151378,286.60254037844
 l 50.0,-86.602540378444 l 50.0,86.602540378444 l -100,0 Z" />
<path fill="none" stroke="black" stroke-width="5" 
d="M 896.41016151378,386.60254037844
 l 50.0,86.602540378444 l 50.0,-86.602540378444 l -100,0 Z" />
<path fill="none" stroke="black" stroke-width="5" 
d="M 946.41016151378,473.20508075689
 l 50.0,-86.602540378444 l 50.0,86.602540378444 l -100,0 Z" />
<path fill="none" stroke="black" stroke-width="5" 
d="M 996.41016151378,386.60254037844
 l 50.0,86.602540378444 l 50.0,-86.602540378444 l -100,0 Z" />

<path fill="none" stroke="black" stroke-width="5" 
d="M 946.41016151378,473.20508075689
 l 100,0 l 0,100 l -100,0 l 0,-100 Z" />
<path fill="none" stroke="black" stroke-width="5" 
d="M 946.41016151378,573.20508075689
 l 100,0 l 0,100 l -100,0 l 0,-100 Z" />
<path fill="none" stroke="black" stroke-width="5" 
d="M 946.41016151378,473.20508075689
 l -86.602540378444,50.0 l 86.602540378444,50.0 l 0,-100 Z" />
<path fill="none" stroke="black" stroke-width="5" 
d="M 859.80762113533,523.20508075689
 l 86.602540378444,50.0 l -86.602540378444,50.0 l 0,-100 Z" />
<path fill="none" stroke="black" stroke-width="5" 
d="M 946.41016151378,573.20508075689
 l -86.602540378444,50.0 l 86.602540378444,50.0 l 0,-100 Z" />
<path fill="none" stroke="black" stroke-width="5" 
d="M 1046.4101615138,473.20508075689
 l 86.602540378444,50.0 l -86.602540378444,50.0 l 0,-100 Z" />
<path fill="none" stroke="black" stroke-width="5" 
d="M 1133.0127018922,523.20508075689
 l -86.602540378444,50.0 l 86.602540378444,50.0 l 0,-100 Z" />
<path fill="none" stroke="black" stroke-width="5" 
d="M 1046.4101615138,573.20508075689
 l 86.602540378444,50.0 l -86.602540378444,50.0 l 0,-100 Z" />
<path fill="none" stroke="black" stroke-width="5" 
d="M 809.80762113533,436.60254037844
 l 86.602540378444,-50.0 l 50.0,86.602540378444 l -86.602540378444,50.0 l -50.0,-86.602540378444 Z" />
<path fill="none" stroke="black" stroke-width="5" 
d="M 1096.4101615138,386.60254037844
 l 86.602540378444,50.0 l -50.0,86.602540378444 l -86.602540378444,-50.0 l 50.0,-86.602540378444 Z" />

<path fill="none" stroke="black" stroke-width="5" 
d="M 896.41016151378,759.80762113533
 l 100,0 l 0,100 l -100,0 l 0,-100 Z" />
<path fill="none" stroke="black" stroke-width="5" 
d="M 996.41016151378,759.80762113533
 l 100,0 l 0,100 l -100,0 l 0,-100 Z" />
<path fill="none" stroke="black" stroke-width="5" 
d="M 896.41016151378,759.80762113533
 l 50.0,-86.602540378444 l 50.0,86.602540378444 l -100,0 Z" />
<path fill="none" stroke="black" stroke-width="5" 
d="M 946.41016151378,673.20508075689
 l 50.0,86.602540378444 l 50.0,-86.602540378444 l -100,0 Z" />
<path fill="none" stroke="black" stroke-width="5" 
d="M 996.41016151378,759.80762113533
 l 50.0,-86.602540378444 l 50.0,86.602540378444 l -100,0 Z" />
<path fill="none" stroke="black" stroke-width="5" 
d="M 896.41016151378,859.80762113533
 l 50.0,86.602540378444 l 50.0,-86.602540378444 l -100,0 Z" />
<path fill="none" stroke="black" stroke-width="5" 
d="M 946.41016151378,946.41016151378
 l 50.0,-86.602540378444 l 50.0,86.602540378444 l -100,0 Z" />
<path fill="none" stroke="black" stroke-width="5" 
d="M 996.41016151378,859.80762113533
 l 50.0,86.602540378444 l 50.0,-86.602540378444 l -100,0 Z" />

<path fill="none" stroke="black" stroke-width="5" 
d="M 946.41016151378,946.41016151378
 l 100,0 l 0,100 l -100,0 l 0,-100 Z" />
<path fill="none" stroke="black" stroke-width="5" 
d="M 946.41016151378,1046.4101615138
 l 100,0 l 0,100 l -100,0 l 0,-100 Z" />
<path fill="none" stroke="black" stroke-width="5" 
d="M 946.41016151378,946.41016151378
 l -86.602540378444,50.0 l 86.602540378444,50.0 l 0,-100 Z" />
<path fill="none" stroke="black" stroke-width="5" 
d="M 859.80762113533,996.41016151378
 l 86.602540378444,50.0 l -86.602540378444,50.0 l 0,-100 Z" />
<path fill="none" stroke="black" stroke-width="5" 
d="M 946.41016151378,1046.4101615138
 l -86.602540378444,50.0 l 86.602540378444,50.0 l 0,-100 Z" />
<path fill="none" stroke="black" stroke-width="5" 
d="M 1046.4101615138,946.41016151378
 l 86.602540378444,50.0 l -86.602540378444,50.0 l 0,-100 Z" />
<path fill="none" stroke="black" stroke-width="5" 
d="M 1133.0127018922,996.41016151378
 l -86.602540378444,50.0 l 86.602540378444,50.0 l 0,-100 Z" />
<path fill="none" stroke="black" stroke-width="5" 
d="M 1046.4101615138,1046.4101615138
 l 86.602540378444,50.0 l -86.602540378444,50.0 l 0,-100 Z" />
<path fill="none" stroke="black" stroke-width="5" 
d="M 809.80762113533,909.80762113533
 l 86.602540378444,-50.0 l 50.0,86.602540378444 l -86.602540378444,50.0 l -50.0,-86.602540378444 Z" />
<path fill="none" stroke="black" stroke-width="5" 
d="M 1096.4101615138,859.80762113533
 l 86.602540378444,50.0 l -50.0,86.602540378444 l -86.602540378444,-50.0 l 50.0,-86.602540378444 Z" />

<path fill="none" stroke="black" stroke-width="5" 
d="M 896.41016151378,1233.0127018922
 l 100,0 l 0,100 l -100,0 l 0,-100 Z" />
<path fill="none" stroke="black" stroke-width="5" 
d="M 996.41016151378,1233.0127018922
 l 100,0 l 0,100 l -100,0 l 0,-100 Z" />
<path fill="none" stroke="black" stroke-width="5" 
d="M 896.41016151378,1233.0127018922
 l 50.0,-86.602540378444 l 50.0,86.602540378444 l -100,0 Z" />
<path fill="none" stroke="black" stroke-width="5" 
d="M 946.41016151378,1146.4101615138
 l 50.0,86.602540378444 l 50.0,-86.602540378444 l -100,0 Z" />
<path fill="none" stroke="black" stroke-width="5" 
d="M 996.41016151378,1233.0127018922
 l 50.0,-86.602540378444 l 50.0,86.602540378444 l -100,0 Z" />
<path fill="none" stroke="black" stroke-width="5" 
d="M 896.41016151378,1333.0127018922
 l 50.0,86.602540378444 l 50.0,-86.602540378444 l -100,0 Z" />
<path fill="none" stroke="black" stroke-width="5" 
d="M 946.41016151378,1419.6152422707
 l 50.0,-86.602540378444 l 50.0,86.602540378444 l -100,0 Z" />
<path fill="none" stroke="black" stroke-width="5" 
d="M 996.41016151378,1333.0127018922
 l 50.0,86.602540378444 l 50.0,-86.602540378444 l -100,0 Z" />

<path fill="none" stroke="black" stroke-width="5" 
d="M 946.41016151378,1419.6152422707
 l 100,0 l 0,100 l -100,0 l 0,-100 Z" />
<path fill="none" stroke="black" stroke-width="5" 
d="M 946.41016151378,1519.6152422707
 l 100,0 l 0,100 l -100,0 l 0,-100 Z" />
<path fill="none" stroke="black" stroke-width="5" 
d="M 946.41016151378,1419.6152422707
 l -86.602540378444,50.0 l 86.602540378444,50.0 l 0,-100 Z" />
<path fill="none" stroke="black" stroke-width="5" 
d="M 859.80762113533,1469.6152422707
 l 86.602540378444,50.0 l -86.602540378444,50.0 l 0,-100 Z" />
<path fill="none" stroke="black" stroke-width="5" 
d="M 946.41016151378,1519.6152422707
 l -86.602540378444,50.0 l 86.602540378444,50.0 l 0,-100 Z" />
<path fill="none" stroke="black" stroke-width="5" 
d="M 1046.4101615138,1419.6152422707
 l 86.602540378444,50.0 l -86.602540378444,50.0 l 0,-100 Z" />
<path fill="none" stroke="black" stroke-width="5" 
d="M 1133.0127018922,1469.6152422707
 l -86.602540378444,50.0 l 86.602540378444,50.0 l 0,-100 Z" />
<path fill="none" stroke="black" stroke-width="5" 
d="M 1046.4101615138,1519.6152422707
 l 86.602540378444,50.0 l -86.602540378444,50.0 l 0,-100 Z" />
<path fill="none" stroke="black" stroke-width="5" 
d="M 809.80762113533,1383.0127018922
 l 86.602540378444,-50.0 l 50.0,86.602540378444 l -86.602540378444,50.0 l -50.0,-86.602540378444 Z" />
<path fill="none" stroke="black" stroke-width="5" 
d="M 1096.4101615138,1333.0127018922
 l 86.602540378444,50.0 l -50.0,86.602540378444 l -86.602540378444,-50.0 l 50.0,-86.602540378444 Z" />

<path fill="none" stroke="black" stroke-width="5" 
d="M 896.41016151378,1706.2177826491
 l 100,0 l 0,100 l -100,0 l 0,-100 Z" />
<path fill="none" stroke="black" stroke-width="5" 
d="M 996.41016151378,1706.2177826491
 l 100,0 l 0,100 l -100,0 l 0,-100 Z" />
<path fill="none" stroke="black" stroke-width="5" 
d="M 896.41016151378,1706.2177826491
 l 50.0,-86.602540378444 l 50.0,86.602540378444 l -100,0 Z" />
<path fill="none" stroke="black" stroke-width="5" 
d="M 946.41016151378,1619.6152422707
 l 50.0,86.602540378444 l 50.0,-86.602540378444 l -100,0 Z" />
<path fill="none" stroke="black" stroke-width="5" 
d="M 996.41016151378,1706.2177826491
 l 50.0,-86.602540378444 l 50.0,86.602540378444 l -100,0 Z" />
<path fill="none" stroke="black" stroke-width="5" 
d="M 896.41016151378,1806.2177826491
 l 50.0,86.602540378444 l 50.0,-86.602540378444 l -100,0 Z" />
<path fill="none" stroke="black" stroke-width="5" 
d="M 946.41016151378,1892.8203230276
 l 50.0,-86.602540378444 l 50.0,86.602540378444 l -100,0 Z" />
<path fill="none" stroke="black" stroke-width="5" 
d="M 996.41016151378,1806.2177826491
 l 50.0,86.602540378444 l 50.0,-86.602540378444 l -100,0 Z" />

<path fill="none" stroke="black" stroke-width="5" 
d="M 1133.0127018922,50.0
 l 100,0 l 0,100 l -100,0 l 0,-100 Z" />
<path fill="none" stroke="black" stroke-width="5" 
d="M 1233.0127018922,50.0
 l 100,0 l 0,100 l -100,0 l 0,-100 Z" />
<path fill="none" stroke="black" stroke-width="5" 
d="M 1133.0127018922,50.0
 l 50.0,-86.602540378444 l 50.0,86.602540378444 l -100,0 Z" />
<path fill="none" stroke="black" stroke-width="5" 
d="M 1183.0127018922,-36.602540378444
 l 50.0,86.602540378444 l 50.0,-86.602540378444 l -100,0 Z" />
<path fill="none" stroke="black" stroke-width="5" 
d="M 1233.0127018922,50.0
 l 50.0,-86.602540378444 l 50.0,86.602540378444 l -100,0 Z" />
<path fill="none" stroke="black" stroke-width="5" 
d="M 1133.0127018922,150.0
 l 50.0,86.602540378444 l 50.0,-86.602540378444 l -100,0 Z" />
<path fill="none" stroke="black" stroke-width="5" 
d="M 1183.0127018922,236.60254037844
 l 50.0,-86.602540378444 l 50.0,86.602540378444 l -100,0 Z" />
<path fill="none" stroke="black" stroke-width="5" 
d="M 1233.0127018922,150.0
 l 50.0,86.602540378444 l 50.0,-86.602540378444 l -100,0 Z" />

<path fill="none" stroke="black" stroke-width="5" 
d="M 1183.0127018922,236.60254037844
 l 100,0 l 0,100 l -100,0 l 0,-100 Z" />
<path fill="none" stroke="black" stroke-width="5" 
d="M 1183.0127018922,336.60254037844
 l 100,0 l 0,100 l -100,0 l 0,-100 Z" />
<path fill="none" stroke="black" stroke-width="5" 
d="M 1183.0127018922,236.60254037844
 l -86.602540378444,50.0 l 86.602540378444,50.0 l 0,-100 Z" />
<path fill="none" stroke="black" stroke-width="5" 
d="M 1096.4101615138,286.60254037844
 l 86.602540378444,50.0 l -86.602540378444,50.0 l 0,-100 Z" />
<path fill="none" stroke="black" stroke-width="5" 
d="M 1183.0127018922,336.60254037844
 l -86.602540378444,50.0 l 86.602540378444,50.0 l 0,-100 Z" />
<path fill="none" stroke="black" stroke-width="5" 
d="M 1283.0127018922,236.60254037844
 l 86.602540378444,50.0 l -86.602540378444,50.0 l 0,-100 Z" />
<path fill="none" stroke="black" stroke-width="5" 
d="M 1369.6152422707,286.60254037844
 l -86.602540378444,50.0 l 86.602540378444,50.0 l 0,-100 Z" />
<path fill="none" stroke="black" stroke-width="5" 
d="M 1283.0127018922,336.60254037844
 l 86.602540378444,50.0 l -86.602540378444,50.0 l 0,-100 Z" />
<path fill="none" stroke="black" stroke-width="5" 
d="M 1046.4101615138,200.0
 l 86.602540378444,-50.0 l 50.0,86.602540378444 l -86.602540378444,50.0 l -50.0,-86.602540378444 Z" />
<path fill="none" stroke="black" stroke-width="5" 
d="M 1333.0127018922,150.0
 l 86.602540378444,50.0 l -50.0,86.602540378444 l -86.602540378444,-50.0 l 50.0,-86.602540378444 Z" />

<path fill="none" stroke="black" stroke-width="5" 
d="M 1133.0127018922,523.20508075689
 l 100,0 l 0,100 l -100,0 l 0,-100 Z" />
<path fill="none" stroke="black" stroke-width="5" 
d="M 1233.0127018922,523.20508075689
 l 100,0 l 0,100 l -100,0 l 0,-100 Z" />
<path fill="none" stroke="black" stroke-width="5" 
d="M 1133.0127018922,523.20508075689
 l 50.0,-86.602540378444 l 50.0,86.602540378444 l -100,0 Z" />
<path fill="none" stroke="black" stroke-width="5" 
d="M 1183.0127018922,436.60254037844
 l 50.0,86.602540378444 l 50.0,-86.602540378444 l -100,0 Z" />
<path fill="none" stroke="black" stroke-width="5" 
d="M 1233.0127018922,523.20508075689
 l 50.0,-86.602540378444 l 50.0,86.602540378444 l -100,0 Z" />
<path fill="none" stroke="black" stroke-width="5" 
d="M 1133.0127018922,623.20508075689
 l 50.0,86.602540378444 l 50.0,-86.602540378444 l -100,0 Z" />
<path fill="none" stroke="black" stroke-width="5" 
d="M 1183.0127018922,709.80762113533
 l 50.0,-86.602540378444 l 50.0,86.602540378444 l -100,0 Z" />
<path fill="none" stroke="black" stroke-width="5" 
d="M 1233.0127018922,623.20508075689
 l 50.0,86.602540378444 l 50.0,-86.602540378444 l -100,0 Z" />

<path fill="none" stroke="black" stroke-width="5" 
d="M 1183.0127018922,709.80762113533
 l 100,0 l 0,100 l -100,0 l 0,-100 Z" />
<path fill="none" stroke="black" stroke-width="5" 
d="M 1183.0127018922,809.80762113533
 l 100,0 l 0,100 l -100,0 l 0,-100 Z" />
<path fill="none" stroke="black" stroke-width="5" 
d="M 1183.0127018922,709.80762113533
 l -86.602540378444,50.0 l 86.602540378444,50.0 l 0,-100 Z" />
<path fill="none" stroke="black" stroke-width="5" 
d="M 1096.4101615138,759.80762113533
 l 86.602540378444,50.0 l -86.602540378444,50.0 l 0,-100 Z" />
<path fill="none" stroke="black" stroke-width="5" 
d="M 1183.0127018922,809.80762113533
 l -86.602540378444,50.0 l 86.602540378444,50.0 l 0,-100 Z" />
<path fill="none" stroke="black" stroke-width="5" 
d="M 1283.0127018922,709.80762113533
 l 86.602540378444,50.0 l -86.602540378444,50.0 l 0,-100 Z" />
<path fill="none" stroke="black" stroke-width="5" 
d="M 1369.6152422707,759.80762113533
 l -86.602540378444,50.0 l 86.602540378444,50.0 l 0,-100 Z" />
<path fill="none" stroke="black" stroke-width="5" 
d="M 1283.0127018922,809.80762113533
 l 86.602540378444,50.0 l -86.602540378444,50.0 l 0,-100 Z" />
<path fill="none" stroke="black" stroke-width="5" 
d="M 1046.4101615138,673.20508075689
 l 86.602540378444,-50.0 l 50.0,86.602540378444 l -86.602540378444,50.0 l -50.0,-86.602540378444 Z" />
<path fill="none" stroke="black" stroke-width="5" 
d="M 1333.0127018922,623.20508075689
 l 86.602540378444,50.0 l -50.0,86.602540378444 l -86.602540378444,-50.0 l 50.0,-86.602540378444 Z" />

<path fill="none" stroke="black" stroke-width="5" 
d="M 1133.0127018922,996.41016151378
 l 100,0 l 0,100 l -100,0 l 0,-100 Z" />
<path fill="none" stroke="black" stroke-width="5" 
d="M 1233.0127018922,996.41016151378
 l 100,0 l 0,100 l -100,0 l 0,-100 Z" />
<path fill="none" stroke="black" stroke-width="5" 
d="M 1133.0127018922,996.41016151378
 l 50.0,-86.602540378444 l 50.0,86.602540378444 l -100,0 Z" />
<path fill="none" stroke="black" stroke-width="5" 
d="M 1183.0127018922,909.80762113533
 l 50.0,86.602540378444 l 50.0,-86.602540378444 l -100,0 Z" />
<path fill="none" stroke="black" stroke-width="5" 
d="M 1233.0127018922,996.41016151378
 l 50.0,-86.602540378444 l 50.0,86.602540378444 l -100,0 Z" />
<path fill="none" stroke="black" stroke-width="5" 
d="M 1133.0127018922,1096.4101615138
 l 50.0,86.602540378444 l 50.0,-86.602540378444 l -100,0 Z" />
<path fill="none" stroke="black" stroke-width="5" 
d="M 1183.0127018922,1183.0127018922
 l 50.0,-86.602540378444 l 50.0,86.602540378444 l -100,0 Z" />
<path fill="none" stroke="black" stroke-width="5" 
d="M 1233.0127018922,1096.4101615138
 l 50.0,86.602540378444 l 50.0,-86.602540378444 l -100,0 Z" />

<path fill="none" stroke="black" stroke-width="5" 
d="M 1183.0127018922,1183.0127018922
 l 100,0 l 0,100 l -100,0 l 0,-100 Z" />
<path fill="none" stroke="black" stroke-width="5" 
d="M 1183.0127018922,1283.0127018922
 l 100,0 l 0,100 l -100,0 l 0,-100 Z" />
<path fill="none" stroke="black" stroke-width="5" 
d="M 1183.0127018922,1183.0127018922
 l -86.602540378444,50.0 l 86.602540378444,50.0 l 0,-100 Z" />
<path fill="none" stroke="black" stroke-width="5" 
d="M 1096.4101615138,1233.0127018922
 l 86.602540378444,50.0 l -86.602540378444,50.0 l 0,-100 Z" />
<path fill="none" stroke="black" stroke-width="5" 
d="M 1183.0127018922,1283.0127018922
 l -86.602540378444,50.0 l 86.602540378444,50.0 l 0,-100 Z" />
<path fill="none" stroke="black" stroke-width="5" 
d="M 1283.0127018922,1183.0127018922
 l 86.602540378444,50.0 l -86.602540378444,50.0 l 0,-100 Z" />
<path fill="none" stroke="black" stroke-width="5" 
d="M 1369.6152422707,1233.0127018922
 l -86.602540378444,50.0 l 86.602540378444,50.0 l 0,-100 Z" />
<path fill="none" stroke="black" stroke-width="5" 
d="M 1283.0127018922,1283.0127018922
 l 86.602540378444,50.0 l -86.602540378444,50.0 l 0,-100 Z" />
<path fill="none" stroke="black" stroke-width="5" 
d="M 1046.4101615138,1146.4101615138
 l 86.602540378444,-50.0 l 50.0,86.602540378444 l -86.602540378444,50.0 l -50.0,-86.602540378444 Z" />
<path fill="none" stroke="black" stroke-width="5" 
d="M 1333.0127018922,1096.4101615138
 l 86.602540378444,50.0 l -50.0,86.602540378444 l -86.602540378444,-50.0 l 50.0,-86.602540378444 Z" />

<path fill="none" stroke="black" stroke-width="5" 
d="M 1133.0127018922,1469.6152422707
 l 100,0 l 0,100 l -100,0 l 0,-100 Z" />
<path fill="none" stroke="black" stroke-width="5" 
d="M 1233.0127018922,1469.6152422707
 l 100,0 l 0,100 l -100,0 l 0,-100 Z" />
<path fill="none" stroke="black" stroke-width="5" 
d="M 1133.0127018922,1469.6152422707
 l 50.0,-86.602540378444 l 50.0,86.602540378444 l -100,0 Z" />
<path fill="none" stroke="black" stroke-width="5" 
d="M 1183.0127018922,1383.0127018922
 l 50.0,86.602540378444 l 50.0,-86.602540378444 l -100,0 Z" />
<path fill="none" stroke="black" stroke-width="5" 
d="M 1233.0127018922,1469.6152422707
 l 50.0,-86.602540378444 l 50.0,86.602540378444 l -100,0 Z" />
<path fill="none" stroke="black" stroke-width="5" 
d="M 1133.0127018922,1569.6152422707
 l 50.0,86.602540378444 l 50.0,-86.602540378444 l -100,0 Z" />
<path fill="none" stroke="black" stroke-width="5" 
d="M 1183.0127018922,1656.2177826491
 l 50.0,-86.602540378444 l 50.0,86.602540378444 l -100,0 Z" />
<path fill="none" stroke="black" stroke-width="5" 
d="M 1233.0127018922,1569.6152422707
 l 50.0,86.602540378444 l 50.0,-86.602540378444 l -100,0 Z" />

<path fill="none" stroke="black" stroke-width="5" 
d="M 1183.0127018922,1656.2177826491
 l 100,0 l 0,100 l -100,0 l 0,-100 Z" />
<path fill="none" stroke="black" stroke-width="5" 
d="M 1183.0127018922,1756.2177826491
 l 100,0 l 0,100 l -100,0 l 0,-100 Z" />
<path fill="none" stroke="black" stroke-width="5" 
d="M 1183.0127018922,1656.2177826491
 l -86.602540378444,50.0 l 86.602540378444,50.0 l 0,-100 Z" />
<path fill="none" stroke="black" stroke-width="5" 
d="M 1096.4101615138,1706.2177826491
 l 86.602540378444,50.0 l -86.602540378444,50.0 l 0,-100 Z" />
<path fill="none" stroke="black" stroke-width="5" 
d="M 1183.0127018922,1756.2177826491
 l -86.602540378444,50.0 l 86.602540378444,50.0 l 0,-100 Z" />
<path fill="none" stroke="black" stroke-width="5" 
d="M 1283.0127018922,1656.2177826491
 l 86.602540378444,50.0 l -86.602540378444,50.0 l 0,-100 Z" />
<path fill="none" stroke="black" stroke-width="5" 
d="M 1369.6152422707,1706.2177826491
 l -86.602540378444,50.0 l 86.602540378444,50.0 l 0,-100 Z" />
<path fill="none" stroke="black" stroke-width="5" 
d="M 1283.0127018922,1756.2177826491
 l 86.602540378444,50.0 l -86.602540378444,50.0 l 0,-100 Z" />
<path fill="none" stroke="black" stroke-width="5" 
d="M 1046.4101615138,1619.6152422707
 l 86.602540378444,-50.0 l 50.0,86.602540378444 l -86.602540378444,50.0 l -50.0,-86.602540378444 Z" />
<path fill="none" stroke="black" stroke-width="5" 
d="M 1333.0127018922,1569.6152422707
 l 86.602540378444,50.0 l -50.0,86.602540378444 l -86.602540378444,-50.0 l 50.0,-86.602540378444 Z" />

<path fill="none" stroke="black" stroke-width="5" 
d="M 1419.6152422707,0.0
 l 100,0 l 0,100 l -100,0 l 0,-100 Z" />
<path fill="none" stroke="black" stroke-width="5" 
d="M 1419.6152422707,100.0
 l 100,0 l 0,100 l -100,0 l 0,-100 Z" />
<path fill="none" stroke="black" stroke-width="5" 
d="M 1419.6152422707,0.0
 l -86.602540378444,50.0 l 86.602540378444,50.0 l 0,-100 Z" />
<path fill="none" stroke="black" stroke-width="5" 
d="M 1333.0127018922,50.0
 l 86.602540378444,50.0 l -86.602540378444,50.0 l 0,-100 Z" />
<path fill="none" stroke="black" stroke-width="5" 
d="M 1419.6152422707,100.0
 l -86.602540378444,50.0 l 86.602540378444,50.0 l 0,-100 Z" />
<path fill="none" stroke="black" stroke-width="5" 
d="M 1519.6152422707,0.0
 l 86.602540378444,50.0 l -86.602540378444,50.0 l 0,-100 Z" />
<path fill="none" stroke="black" stroke-width="5" 
d="M 1606.2177826491,50.0
 l -86.602540378444,50.0 l 86.602540378444,50.0 l 0,-100 Z" />
<path fill="none" stroke="black" stroke-width="5" 
d="M 1519.6152422707,100.0
 l 86.602540378444,50.0 l -86.602540378444,50.0 l 0,-100 Z" />
<path fill="none" stroke="black" stroke-width="5" 
d="M 1283.0127018922,-36.602540378444
 l 86.602540378444,-50.0 l 50.0,86.602540378444 l -86.602540378444,50.0 l -50.0,-86.602540378444 Z" />
<path fill="none" stroke="black" stroke-width="5" 
d="M 1569.6152422707,-86.602540378444
 l 86.602540378444,50.0 l -50.0,86.602540378444 l -86.602540378444,-50.0 l 50.0,-86.602540378444 Z" />

<path fill="none" stroke="black" stroke-width="5" 
d="M 1369.6152422707,286.60254037844
 l 100,0 l 0,100 l -100,0 l 0,-100 Z" />
<path fill="none" stroke="black" stroke-width="5" 
d="M 1469.6152422707,286.60254037844
 l 100,0 l 0,100 l -100,0 l 0,-100 Z" />
<path fill="none" stroke="black" stroke-width="5" 
d="M 1369.6152422707,286.60254037844
 l 50.0,-86.602540378444 l 50.0,86.602540378444 l -100,0 Z" />
<path fill="none" stroke="black" stroke-width="5" 
d="M 1419.6152422707,200.0
 l 50.0,86.602540378444 l 50.0,-86.602540378444 l -100,0 Z" />
<path fill="none" stroke="black" stroke-width="5" 
d="M 1469.6152422707,286.60254037844
 l 50.0,-86.602540378444 l 50.0,86.602540378444 l -100,0 Z" />
<path fill="none" stroke="black" stroke-width="5" 
d="M 1369.6152422707,386.60254037844
 l 50.0,86.602540378444 l 50.0,-86.602540378444 l -100,0 Z" />
<path fill="none" stroke="black" stroke-width="5" 
d="M 1419.6152422707,473.20508075689
 l 50.0,-86.602540378444 l 50.0,86.602540378444 l -100,0 Z" />
<path fill="none" stroke="black" stroke-width="5" 
d="M 1469.6152422707,386.60254037844
 l 50.0,86.602540378444 l 50.0,-86.602540378444 l -100,0 Z" />

<path fill="none" stroke="black" stroke-width="5" 
d="M 1419.6152422707,473.20508075689
 l 100,0 l 0,100 l -100,0 l 0,-100 Z" />
<path fill="none" stroke="black" stroke-width="5" 
d="M 1419.6152422707,573.20508075689
 l 100,0 l 0,100 l -100,0 l 0,-100 Z" />
<path fill="none" stroke="black" stroke-width="5" 
d="M 1419.6152422707,473.20508075689
 l -86.602540378444,50.0 l 86.602540378444,50.0 l 0,-100 Z" />
<path fill="none" stroke="black" stroke-width="5" 
d="M 1333.0127018922,523.20508075689
 l 86.602540378444,50.0 l -86.602540378444,50.0 l 0,-100 Z" />
<path fill="none" stroke="black" stroke-width="5" 
d="M 1419.6152422707,573.20508075689
 l -86.602540378444,50.0 l 86.602540378444,50.0 l 0,-100 Z" />
<path fill="none" stroke="black" stroke-width="5" 
d="M 1519.6152422707,473.20508075689
 l 86.602540378444,50.0 l -86.602540378444,50.0 l 0,-100 Z" />
<path fill="none" stroke="black" stroke-width="5" 
d="M 1606.2177826491,523.20508075689
 l -86.602540378444,50.0 l 86.602540378444,50.0 l 0,-100 Z" />
<path fill="none" stroke="black" stroke-width="5" 
d="M 1519.6152422707,573.20508075689
 l 86.602540378444,50.0 l -86.602540378444,50.0 l 0,-100 Z" />
<path fill="none" stroke="black" stroke-width="5" 
d="M 1283.0127018922,436.60254037844
 l 86.602540378444,-50.0 l 50.0,86.602540378444 l -86.602540378444,50.0 l -50.0,-86.602540378444 Z" />
<path fill="none" stroke="black" stroke-width="5" 
d="M 1569.6152422707,386.60254037844
 l 86.602540378444,50.0 l -50.0,86.602540378444 l -86.602540378444,-50.0 l 50.0,-86.602540378444 Z" />

<path fill="none" stroke="black" stroke-width="5" 
d="M 1369.6152422707,759.80762113533
 l 100,0 l 0,100 l -100,0 l 0,-100 Z" />
<path fill="none" stroke="black" stroke-width="5" 
d="M 1469.6152422707,759.80762113533
 l 100,0 l 0,100 l -100,0 l 0,-100 Z" />
<path fill="none" stroke="black" stroke-width="5" 
d="M 1369.6152422707,759.80762113533
 l 50.0,-86.602540378444 l 50.0,86.602540378444 l -100,0 Z" />
<path fill="none" stroke="black" stroke-width="5" 
d="M 1419.6152422707,673.20508075689
 l 50.0,86.602540378444 l 50.0,-86.602540378444 l -100,0 Z" />
<path fill="none" stroke="black" stroke-width="5" 
d="M 1469.6152422707,759.80762113533
 l 50.0,-86.602540378444 l 50.0,86.602540378444 l -100,0 Z" />
<path fill="none" stroke="black" stroke-width="5" 
d="M 1369.6152422707,859.80762113533
 l 50.0,86.602540378444 l 50.0,-86.602540378444 l -100,0 Z" />
<path fill="none" stroke="black" stroke-width="5" 
d="M 1419.6152422707,946.41016151378
 l 50.0,-86.602540378444 l 50.0,86.602540378444 l -100,0 Z" />
<path fill="none" stroke="black" stroke-width="5" 
d="M 1469.6152422707,859.80762113533
 l 50.0,86.602540378444 l 50.0,-86.602540378444 l -100,0 Z" />

<path fill="none" stroke="black" stroke-width="5" 
d="M 1419.6152422707,946.41016151378
 l 100,0 l 0,100 l -100,0 l 0,-100 Z" />
<path fill="none" stroke="black" stroke-width="5" 
d="M 1419.6152422707,1046.4101615138
 l 100,0 l 0,100 l -100,0 l 0,-100 Z" />
<path fill="none" stroke="black" stroke-width="5" 
d="M 1419.6152422707,946.41016151378
 l -86.602540378444,50.0 l 86.602540378444,50.0 l 0,-100 Z" />
<path fill="none" stroke="black" stroke-width="5" 
d="M 1333.0127018922,996.41016151378
 l 86.602540378444,50.0 l -86.602540378444,50.0 l 0,-100 Z" />
<path fill="none" stroke="black" stroke-width="5" 
d="M 1419.6152422707,1046.4101615138
 l -86.602540378444,50.0 l 86.602540378444,50.0 l 0,-100 Z" />
<path fill="none" stroke="black" stroke-width="5" 
d="M 1519.6152422707,946.41016151378
 l 86.602540378444,50.0 l -86.602540378444,50.0 l 0,-100 Z" />
<path fill="none" stroke="black" stroke-width="5" 
d="M 1606.2177826491,996.41016151378
 l -86.602540378444,50.0 l 86.602540378444,50.0 l 0,-100 Z" />
<path fill="none" stroke="black" stroke-width="5" 
d="M 1519.6152422707,1046.4101615138
 l 86.602540378444,50.0 l -86.602540378444,50.0 l 0,-100 Z" />
<path fill="none" stroke="black" stroke-width="5" 
d="M 1283.0127018922,909.80762113533
 l 86.602540378444,-50.0 l 50.0,86.602540378444 l -86.602540378444,50.0 l -50.0,-86.602540378444 Z" />
<path fill="none" stroke="black" stroke-width="5" 
d="M 1569.6152422707,859.80762113533
 l 86.602540378444,50.0 l -50.0,86.602540378444 l -86.602540378444,-50.0 l 50.0,-86.602540378444 Z" />

<path fill="none" stroke="black" stroke-width="5" 
d="M 1369.6152422707,1233.0127018922
 l 100,0 l 0,100 l -100,0 l 0,-100 Z" />
<path fill="none" stroke="black" stroke-width="5" 
d="M 1469.6152422707,1233.0127018922
 l 100,0 l 0,100 l -100,0 l 0,-100 Z" />
<path fill="none" stroke="black" stroke-width="5" 
d="M 1369.6152422707,1233.0127018922
 l 50.0,-86.602540378444 l 50.0,86.602540378444 l -100,0 Z" />
<path fill="none" stroke="black" stroke-width="5" 
d="M 1419.6152422707,1146.4101615138
 l 50.0,86.602540378444 l 50.0,-86.602540378444 l -100,0 Z" />
<path fill="none" stroke="black" stroke-width="5" 
d="M 1469.6152422707,1233.0127018922
 l 50.0,-86.602540378444 l 50.0,86.602540378444 l -100,0 Z" />
<path fill="none" stroke="black" stroke-width="5" 
d="M 1369.6152422707,1333.0127018922
 l 50.0,86.602540378444 l 50.0,-86.602540378444 l -100,0 Z" />
<path fill="none" stroke="black" stroke-width="5" 
d="M 1419.6152422707,1419.6152422707
 l 50.0,-86.602540378444 l 50.0,86.602540378444 l -100,0 Z" />
<path fill="none" stroke="black" stroke-width="5" 
d="M 1469.6152422707,1333.0127018922
 l 50.0,86.602540378444 l 50.0,-86.602540378444 l -100,0 Z" />

<path fill="none" stroke="black" stroke-width="5" 
d="M 1419.6152422707,1419.6152422707
 l 100,0 l 0,100 l -100,0 l 0,-100 Z" />
<path fill="none" stroke="black" stroke-width="5" 
d="M 1419.6152422707,1519.6152422707
 l 100,0 l 0,100 l -100,0 l 0,-100 Z" />
<path fill="none" stroke="black" stroke-width="5" 
d="M 1419.6152422707,1419.6152422707
 l -86.602540378444,50.0 l 86.602540378444,50.0 l 0,-100 Z" />
<path fill="none" stroke="black" stroke-width="5" 
d="M 1333.0127018922,1469.6152422707
 l 86.602540378444,50.0 l -86.602540378444,50.0 l 0,-100 Z" />
<path fill="none" stroke="black" stroke-width="5" 
d="M 1419.6152422707,1519.6152422707
 l -86.602540378444,50.0 l 86.602540378444,50.0 l 0,-100 Z" />
<path fill="none" stroke="black" stroke-width="5" 
d="M 1519.6152422707,1419.6152422707
 l 86.602540378444,50.0 l -86.602540378444,50.0 l 0,-100 Z" />
<path fill="none" stroke="black" stroke-width="5" 
d="M 1606.2177826491,1469.6152422707
 l -86.602540378444,50.0 l 86.602540378444,50.0 l 0,-100 Z" />
<path fill="none" stroke="black" stroke-width="5" 
d="M 1519.6152422707,1519.6152422707
 l 86.602540378444,50.0 l -86.602540378444,50.0 l 0,-100 Z" />
<path fill="none" stroke="black" stroke-width="5" 
d="M 1283.0127018922,1383.0127018922
 l 86.602540378444,-50.0 l 50.0,86.602540378444 l -86.602540378444,50.0 l -50.0,-86.602540378444 Z" />
<path fill="none" stroke="black" stroke-width="5" 
d="M 1569.6152422707,1333.0127018922
 l 86.602540378444,50.0 l -50.0,86.602540378444 l -86.602540378444,-50.0 l 50.0,-86.602540378444 Z" />

<path fill="none" stroke="black" stroke-width="5" 
d="M 1369.6152422707,1706.2177826491
 l 100,0 l 0,100 l -100,0 l 0,-100 Z" />
<path fill="none" stroke="black" stroke-width="5" 
d="M 1469.6152422707,1706.2177826491
 l 100,0 l 0,100 l -100,0 l 0,-100 Z" />
<path fill="none" stroke="black" stroke-width="5" 
d="M 1369.6152422707,1706.2177826491
 l 50.0,-86.602540378444 l 50.0,86.602540378444 l -100,0 Z" />
<path fill="none" stroke="black" stroke-width="5" 
d="M 1419.6152422707,1619.6152422707
 l 50.0,86.602540378444 l 50.0,-86.602540378444 l -100,0 Z" />
<path fill="none" stroke="black" stroke-width="5" 
d="M 1469.6152422707,1706.2177826491
 l 50.0,-86.602540378444 l 50.0,86.602540378444 l -100,0 Z" />
<path fill="none" stroke="black" stroke-width="5" 
d="M 1369.6152422707,1806.2177826491
 l 50.0,86.602540378444 l 50.0,-86.602540378444 l -100,0 Z" />
<path fill="none" stroke="black" stroke-width="5" 
d="M 1419.6152422707,1892.8203230276
 l 50.0,-86.602540378444 l 50.0,86.602540378444 l -100,0 Z" />
<path fill="none" stroke="black" stroke-width="5" 
d="M 1469.6152422707,1806.2177826491
 l 50.0,86.602540378444 l 50.0,-86.602540378444 l -100,0 Z" />

<path fill="none" stroke="black" stroke-width="5" 
d="M 1606.2177826491,50.0
 l 100,0 l 0,100 l -100,0 l 0,-100 Z" />
<path fill="none" stroke="black" stroke-width="5" 
d="M 1706.2177826491,50.0
 l 100,0 l 0,100 l -100,0 l 0,-100 Z" />
<path fill="none" stroke="black" stroke-width="5" 
d="M 1606.2177826491,50.0
 l 50.0,-86.602540378444 l 50.0,86.602540378444 l -100,0 Z" />
<path fill="none" stroke="black" stroke-width="5" 
d="M 1656.2177826491,-36.602540378444
 l 50.0,86.602540378444 l 50.0,-86.602540378444 l -100,0 Z" />
<path fill="none" stroke="black" stroke-width="5" 
d="M 1706.2177826491,50.0
 l 50.0,-86.602540378444 l 50.0,86.602540378444 l -100,0 Z" />
<path fill="none" stroke="black" stroke-width="5" 
d="M 1606.2177826491,150.0
 l 50.0,86.602540378444 l 50.0,-86.602540378444 l -100,0 Z" />
<path fill="none" stroke="black" stroke-width="5" 
d="M 1656.2177826491,236.60254037844
 l 50.0,-86.602540378444 l 50.0,86.602540378444 l -100,0 Z" />
<path fill="none" stroke="black" stroke-width="5" 
d="M 1706.2177826491,150.0
 l 50.0,86.602540378444 l 50.0,-86.602540378444 l -100,0 Z" />

<path fill="none" stroke="black" stroke-width="5" 
d="M 1656.2177826491,236.60254037844
 l 100,0 l 0,100 l -100,0 l 0,-100 Z" />
<path fill="none" stroke="black" stroke-width="5" 
d="M 1656.2177826491,336.60254037844
 l 100,0 l 0,100 l -100,0 l 0,-100 Z" />
<path fill="none" stroke="black" stroke-width="5" 
d="M 1656.2177826491,236.60254037844
 l -86.602540378444,50.0 l 86.602540378444,50.0 l 0,-100 Z" />
<path fill="none" stroke="black" stroke-width="5" 
d="M 1569.6152422707,286.60254037844
 l 86.602540378444,50.0 l -86.602540378444,50.0 l 0,-100 Z" />
<path fill="none" stroke="black" stroke-width="5" 
d="M 1656.2177826491,336.60254037844
 l -86.602540378444,50.0 l 86.602540378444,50.0 l 0,-100 Z" />
<path fill="none" stroke="black" stroke-width="5" 
d="M 1756.2177826491,236.60254037844
 l 86.602540378444,50.0 l -86.602540378444,50.0 l 0,-100 Z" />
<path fill="none" stroke="black" stroke-width="5" 
d="M 1842.8203230276,286.60254037844
 l -86.602540378444,50.0 l 86.602540378444,50.0 l 0,-100 Z" />
<path fill="none" stroke="black" stroke-width="5" 
d="M 1756.2177826491,336.60254037844
 l 86.602540378444,50.0 l -86.602540378444,50.0 l 0,-100 Z" />
<path fill="none" stroke="black" stroke-width="5" 
d="M 1519.6152422707,200.0
 l 86.602540378444,-50.0 l 50.0,86.602540378444 l -86.602540378444,50.0 l -50.0,-86.602540378444 Z" />
<path fill="none" stroke="black" stroke-width="5" 
d="M 1806.2177826491,150.0
 l 86.602540378444,50.0 l -50.0,86.602540378444 l -86.602540378444,-50.0 l 50.0,-86.602540378444 Z" />

<path fill="none" stroke="black" stroke-width="5" 
d="M 1606.2177826491,523.20508075689
 l 100,0 l 0,100 l -100,0 l 0,-100 Z" />
<path fill="none" stroke="black" stroke-width="5" 
d="M 1706.2177826491,523.20508075689
 l 100,0 l 0,100 l -100,0 l 0,-100 Z" />
<path fill="none" stroke="black" stroke-width="5" 
d="M 1606.2177826491,523.20508075689
 l 50.0,-86.602540378444 l 50.0,86.602540378444 l -100,0 Z" />
<path fill="none" stroke="black" stroke-width="5" 
d="M 1656.2177826491,436.60254037844
 l 50.0,86.602540378444 l 50.0,-86.602540378444 l -100,0 Z" />
<path fill="none" stroke="black" stroke-width="5" 
d="M 1706.2177826491,523.20508075689
 l 50.0,-86.602540378444 l 50.0,86.602540378444 l -100,0 Z" />
<path fill="none" stroke="black" stroke-width="5" 
d="M 1606.2177826491,623.20508075689
 l 50.0,86.602540378444 l 50.0,-86.602540378444 l -100,0 Z" />
<path fill="none" stroke="black" stroke-width="5" 
d="M 1656.2177826491,709.80762113533
 l 50.0,-86.602540378444 l 50.0,86.602540378444 l -100,0 Z" />
<path fill="none" stroke="black" stroke-width="5" 
d="M 1706.2177826491,623.20508075689
 l 50.0,86.602540378444 l 50.0,-86.602540378444 l -100,0 Z" />

<path fill="none" stroke="black" stroke-width="5" 
d="M 1656.2177826491,709.80762113533
 l 100,0 l 0,100 l -100,0 l 0,-100 Z" />
<path fill="none" stroke="black" stroke-width="5" 
d="M 1656.2177826491,809.80762113533
 l 100,0 l 0,100 l -100,0 l 0,-100 Z" />
<path fill="none" stroke="black" stroke-width="5" 
d="M 1656.2177826491,709.80762113533
 l -86.602540378444,50.0 l 86.602540378444,50.0 l 0,-100 Z" />
<path fill="none" stroke="black" stroke-width="5" 
d="M 1569.6152422707,759.80762113533
 l 86.602540378444,50.0 l -86.602540378444,50.0 l 0,-100 Z" />
<path fill="none" stroke="black" stroke-width="5" 
d="M 1656.2177826491,809.80762113533
 l -86.602540378444,50.0 l 86.602540378444,50.0 l 0,-100 Z" />
<path fill="none" stroke="black" stroke-width="5" 
d="M 1756.2177826491,709.80762113533
 l 86.602540378444,50.0 l -86.602540378444,50.0 l 0,-100 Z" />
<path fill="none" stroke="black" stroke-width="5" 
d="M 1842.8203230276,759.80762113533
 l -86.602540378444,50.0 l 86.602540378444,50.0 l 0,-100 Z" />
<path fill="none" stroke="black" stroke-width="5" 
d="M 1756.2177826491,809.80762113533
 l 86.602540378444,50.0 l -86.602540378444,50.0 l 0,-100 Z" />
<path fill="none" stroke="black" stroke-width="5" 
d="M 1519.6152422707,673.20508075689
 l 86.602540378444,-50.0 l 50.0,86.602540378444 l -86.602540378444,50.0 l -50.0,-86.602540378444 Z" />
<path fill="none" stroke="black" stroke-width="5" 
d="M 1806.2177826491,623.20508075689
 l 86.602540378444,50.0 l -50.0,86.602540378444 l -86.602540378444,-50.0 l 50.0,-86.602540378444 Z" />

<path fill="none" stroke="black" stroke-width="5" 
d="M 1606.2177826491,996.41016151378
 l 100,0 l 0,100 l -100,0 l 0,-100 Z" />
<path fill="none" stroke="black" stroke-width="5" 
d="M 1706.2177826491,996.41016151378
 l 100,0 l 0,100 l -100,0 l 0,-100 Z" />
<path fill="none" stroke="black" stroke-width="5" 
d="M 1606.2177826491,996.41016151378
 l 50.0,-86.602540378444 l 50.0,86.602540378444 l -100,0 Z" />
<path fill="none" stroke="black" stroke-width="5" 
d="M 1656.2177826491,909.80762113533
 l 50.0,86.602540378444 l 50.0,-86.602540378444 l -100,0 Z" />
<path fill="none" stroke="black" stroke-width="5" 
d="M 1706.2177826491,996.41016151378
 l 50.0,-86.602540378444 l 50.0,86.602540378444 l -100,0 Z" />
<path fill="none" stroke="black" stroke-width="5" 
d="M 1606.2177826491,1096.4101615138
 l 50.0,86.602540378444 l 50.0,-86.602540378444 l -100,0 Z" />
<path fill="none" stroke="black" stroke-width="5" 
d="M 1656.2177826491,1183.0127018922
 l 50.0,-86.602540378444 l 50.0,86.602540378444 l -100,0 Z" />
<path fill="none" stroke="black" stroke-width="5" 
d="M 1706.2177826491,1096.4101615138
 l 50.0,86.602540378444 l 50.0,-86.602540378444 l -100,0 Z" />

<path fill="none" stroke="black" stroke-width="5" 
d="M 1656.2177826491,1183.0127018922
 l 100,0 l 0,100 l -100,0 l 0,-100 Z" />
<path fill="none" stroke="black" stroke-width="5" 
d="M 1656.2177826491,1283.0127018922
 l 100,0 l 0,100 l -100,0 l 0,-100 Z" />
<path fill="none" stroke="black" stroke-width="5" 
d="M 1656.2177826491,1183.0127018922
 l -86.602540378444,50.0 l 86.602540378444,50.0 l 0,-100 Z" />
<path fill="none" stroke="black" stroke-width="5" 
d="M 1569.6152422707,1233.0127018922
 l 86.602540378444,50.0 l -86.602540378444,50.0 l 0,-100 Z" />
<path fill="none" stroke="black" stroke-width="5" 
d="M 1656.2177826491,1283.0127018922
 l -86.602540378444,50.0 l 86.602540378444,50.0 l 0,-100 Z" />
<path fill="none" stroke="black" stroke-width="5" 
d="M 1756.2177826491,1183.0127018922
 l 86.602540378444,50.0 l -86.602540378444,50.0 l 0,-100 Z" />
<path fill="none" stroke="black" stroke-width="5" 
d="M 1842.8203230276,1233.0127018922
 l -86.602540378444,50.0 l 86.602540378444,50.0 l 0,-100 Z" />
<path fill="none" stroke="black" stroke-width="5" 
d="M 1756.2177826491,1283.0127018922
 l 86.602540378444,50.0 l -86.602540378444,50.0 l 0,-100 Z" />
<path fill="none" stroke="black" stroke-width="5" 
d="M 1519.6152422707,1146.4101615138
 l 86.602540378444,-50.0 l 50.0,86.602540378444 l -86.602540378444,50.0 l -50.0,-86.602540378444 Z" />
<path fill="none" stroke="black" stroke-width="5" 
d="M 1806.2177826491,1096.4101615138
 l 86.602540378444,50.0 l -50.0,86.602540378444 l -86.602540378444,-50.0 l 50.0,-86.602540378444 Z" />

<path fill="none" stroke="black" stroke-width="5" 
d="M 1606.2177826491,1469.6152422707
 l 100,0 l 0,100 l -100,0 l 0,-100 Z" />
<path fill="none" stroke="black" stroke-width="5" 
d="M 1706.2177826491,1469.6152422707
 l 100,0 l 0,100 l -100,0 l 0,-100 Z" />
<path fill="none" stroke="black" stroke-width="5" 
d="M 1606.2177826491,1469.6152422707
 l 50.0,-86.602540378444 l 50.0,86.602540378444 l -100,0 Z" />
<path fill="none" stroke="black" stroke-width="5" 
d="M 1656.2177826491,1383.0127018922
 l 50.0,86.602540378444 l 50.0,-86.602540378444 l -100,0 Z" />
<path fill="none" stroke="black" stroke-width="5" 
d="M 1706.2177826491,1469.6152422707
 l 50.0,-86.602540378444 l 50.0,86.602540378444 l -100,0 Z" />
<path fill="none" stroke="black" stroke-width="5" 
d="M 1606.2177826491,1569.6152422707
 l 50.0,86.602540378444 l 50.0,-86.602540378444 l -100,0 Z" />
<path fill="none" stroke="black" stroke-width="5" 
d="M 1656.2177826491,1656.2177826491
 l 50.0,-86.602540378444 l 50.0,86.602540378444 l -100,0 Z" />
<path fill="none" stroke="black" stroke-width="5" 
d="M 1706.2177826491,1569.6152422707
 l 50.0,86.602540378444 l 50.0,-86.602540378444 l -100,0 Z" />

<path fill="none" stroke="black" stroke-width="5" 
d="M 1656.2177826491,1656.2177826491
 l 100,0 l 0,100 l -100,0 l 0,-100 Z" />
<path fill="none" stroke="black" stroke-width="5" 
d="M 1656.2177826491,1756.2177826491
 l 100,0 l 0,100 l -100,0 l 0,-100 Z" />
<path fill="none" stroke="black" stroke-width="5" 
d="M 1656.2177826491,1656.2177826491
 l -86.602540378444,50.0 l 86.602540378444,50.0 l 0,-100 Z" />
<path fill="none" stroke="black" stroke-width="5" 
d="M 1569.6152422707,1706.2177826491
 l 86.602540378444,50.0 l -86.602540378444,50.0 l 0,-100 Z" />
<path fill="none" stroke="black" stroke-width="5" 
d="M 1656.2177826491,1756.2177826491
 l -86.602540378444,50.0 l 86.602540378444,50.0 l 0,-100 Z" />
<path fill="none" stroke="black" stroke-width="5" 
d="M 1756.2177826491,1656.2177826491
 l 86.602540378444,50.0 l -86.602540378444,50.0 l 0,-100 Z" />
<path fill="none" stroke="black" stroke-width="5" 
d="M 1842.8203230276,1706.2177826491
 l -86.602540378444,50.0 l 86.602540378444,50.0 l 0,-100 Z" />
<path fill="none" stroke="black" stroke-width="5" 
d="M 1756.2177826491,1756.2177826491
 l 86.602540378444,50.0 l -86.602540378444,50.0 l 0,-100 Z" />
<path fill="none" stroke="black" stroke-width="5" 
d="M 1519.6152422707,1619.6152422707
 l 86.602540378444,-50.0 l 50.0,86.602540378444 l -86.602540378444,50.0 l -50.0,-86.602540378444 Z" />
<path fill="none" stroke="black" stroke-width="5" 
d="M 1806.2177826491,1569.6152422707
 l 86.602540378444,50.0 l -50.0,86.602540378444 l -86.602540378444,-50.0 l 50.0,-86.602540378444 Z" />

</svg>
