<?xml version="1.0" encoding="UTF-8" standalone="no"?>
<svg
   xmlns:dc="http://purl.org/dc/elements/1.1/"
   xmlns:cc="http://creativecommons.org/ns#"
   xmlns:rdf="http://www.w3.org/1999/02/22-rdf-syntax-ns#"
   xmlns:svg="http://www.w3.org/2000/svg"
   xmlns="http://www.w3.org/2000/svg"
   xmlns:sodipodi="http://sodipodi.sourceforge.net/DTD/sodipodi-0.dtd"
   xmlns:inkscape="http://www.inkscape.org/namespaces/inkscape"
   version="1.1"
   id="svg10"
   width="635"
   height="890"
   viewBox="0 0 635 890"
   sodipodi:docname="64-square-1-whitebg.svg"
   inkscape:version="1.0.2 (e86c870879, 2021-01-15, custom)">
  <metadata
     id="metadata16">
    <rdf:RDF>
      <cc:Work
         rdf:about="">
        <dc:format>image/svg+xml</dc:format>
        <dc:type
           rdf:resource="http://purl.org/dc/dcmitype/StillImage" />
        <dc:title />
      </cc:Work>
    </rdf:RDF>
  </metadata>
  <defs
     id="defs14" />
  <sodipodi:namedview
     pagecolor="#ffffff"
     bordercolor="#666666"
     borderopacity="1"
     objecttolerance="10"
     gridtolerance="10"
     guidetolerance="10"
     inkscape:pageopacity="0"
     inkscape:pageshadow="2"
     inkscape:window-width="1920"
     inkscape:window-height="986"
     id="namedview12"
     showgrid="false"
     inkscape:zoom="0.21052632"
     inkscape:cx="355.37502"
     inkscape:cy="1769.7947"
     inkscape:window-x="-11"
     inkscape:window-y="-11"
     inkscape:window-maximized="1"
     inkscape:current-layer="g18"
     inkscape:document-rotation="0" />
  <g
     inkscape:groupmode="layer"
     inkscape:label="Image"
     id="g18">
    <path
       style="fill:#000000;stroke-width:0.25"
       d="m 231.44872,880.41363 c -3.2045,-1.9277 -78.3339,-45.3201 -80.4705,-46.4771 -2.7527,-1.4908 -3.8342,-2.2045 -4.2642,-2.8141 -0.2414,-0.3421 -9.7471,-16.7658 -21.1238,-36.497 -23.4849,-40.7311 -26.128899,-45.289 -27.989299,-48.25 l -1.3352,-2.125 -0.02,-50.25 c -0.019,-48.2174 -0.038,-50.2803 -0.4767,-51 -0.2514,-0.4125 -0.8014,-1.3688 -1.2223,-2.125 -0.6466,-1.1621 -44.5344,-77.1767 -47.3543,-82.0188 l -0.9573,-1.6438 -0.011,-100.8026 -0.011,-100.8025 0.9144,-1.6352 c 0.503,-0.8994 1.1623,-1.936 1.4653,-2.3037 0.3029,-0.3676 9.7498,-16.5872 20.993,-36.0434 11.2433,-19.4563 21.504,-37.175 22.8018,-39.375 1.2977,-2.2 2.6644,-4.5625 3.0372,-5.25 l 0.6778,-1.25 0.125,-50.5 0.125,-50.5 0.8344,-1.375 c 0.4589,-0.7563 1.2081,-1.9375 1.6648,-2.625 1.166299,-1.7557 44.519399,-76.950898 46.123299,-79.999998 0.7232,-1.375 1.4291,-2.643 1.5687,-2.8177 0.1395,-0.1747 1.6723,-1.1202 3.4062,-2.101 5.1702,-2.9246 78.3998,-45.224 81.6526,-47.1648 l 3,-1.7899 100.3644,-7e-4 100.3644,-8e-4 6.1356,3.4149 c 3.3746,1.8782 22.0544,12.6038 41.5106,23.8346 19.4563,11.2309 36.5751,21.0849 38.0419,21.8977 2.9134,1.6144 2.607,1.2577 5.3493,6.2278 0.7767,1.4076 44.748,77.601398 46.6412,80.820198 l 1.2176,2.0702 v 50.0244 50.0244 l 2.3954,4.1554 c 11.8532,20.5625 45.4222,78.5847 46.3744,80.1554 l 1.2123,2 0.01,101.1105 0.01,101.1104 -1.0353,1.7646 c -0.5694,0.9705 -1.1762,1.9333 -1.3483,2.1395 -0.1722,0.2063 -9.7865,16.8 -21.3652,36.875 -11.5786,20.075 -21.5301,37.2313 -22.1143,38.125 -0.5842,0.8938 -1.754,2.8167 -2.5995,4.2732 l -1.5374,2.6482 v 50.3138 50.3138 l -1.9737,3.288 c -1.8425,3.0695 -41.373,71.4739 -46.398,80.288 l -2.2804,4 -2.2365,1.2328 c -3.4849,1.921 -78.0846,44.9697 -81.7533,47.1769 l -3.2669,1.9653 h -101.0126 -101.0126 l -2.8455,-1.7118 z m 99.4879,-3.2724 c -0.3587,-1.008 -45.6089,-78.9653 -45.7521,-78.8221 -0.1021,0.1021 -10.3824,17.8471 -22.8452,39.4334 -12.4628,21.5864 -22.7116,39.3323 -22.7751,39.4354 -0.063,0.1031 20.488,0.1875 45.6701,0.1875 28.3552,0 45.7539,-0.089 45.7023,-0.2342 z m 100,0 c -0.3587,-1.008 -45.6089,-78.9653 -45.7521,-78.8221 -0.1021,0.1021 -10.3824,17.8471 -22.8452,39.4334 -12.4628,21.5864 -22.7116,39.3323 -22.7751,39.4354 -0.063,0.1031 20.488,0.1875 45.6701,0.1875 28.3552,0 45.7539,-0.089 45.7023,-0.2342 z m -172.6541,-41.998 c 13.0451,-22.5932 23.6852,-41.104 23.6446,-41.1352 -0.6654,-0.5114 -81.8774,-47.2084 -82.1366,-47.2288 -0.4305,-0.034 -47.8505,81.8601 -47.5762,82.1637 0.3549,0.3928 81.8977,47.4021 82.1194,47.3417 0.1267,-0.035 10.9037,-18.5482 23.9488,-41.1414 z m 219.3847,17.4062 c 22.4477,-12.9519 40.7852,-23.673 40.75,-23.8246 -0.1848,-0.7963 -47.3585,-82.0983 -47.6028,-82.0416 -0.7975,0.1855 -82.0905,47.3486 -82.0308,47.5913 0.038,0.1557 10.7009,18.6932 23.6946,41.1945 17.8409,30.895 23.7168,40.8768 24,40.7704 0.2063,-0.077 18.7413,-10.738 41.189,-23.69 z m -119.4589,-17.2707 c 12.5317,-21.7094 22.7437,-39.5128 22.6934,-39.5632 -0.05,-0.05 -20.6245,-0.063 -45.7204,-0.028 l -45.6288,0.063 22.092,38.25 c 12.1506,21.0375 22.435,38.852 22.8543,39.5878 0.4192,0.7357 0.7988,1.2982 0.8434,1.25 0.045,-0.048 10.3345,-17.8501 22.8661,-39.5595 z m -186.5149,-50.1575 22.7317,-39.3708 -45.6394,-0.063 c -25.1017,-0.035 -45.6776,-0.025 -45.7242,0.022 -0.047,0.047 10.1812,17.8705 22.7285,39.6087 12.5473,21.7382 22.8939,39.4453 22.9924,39.3492 0.099,-0.096 10.4085,-17.8915 22.911,-39.5455 z m 372.994,0.3792 c 12.3798,-21.45 22.5843,-39.1969 22.6766,-39.4375 0.1594,-0.4157 -2.1099,-0.4375 -45.5048,-0.4375 -28.7943,0 -45.6418,0.088 -45.5893,0.2379 0.3321,0.948 45.6026,78.9652 45.737,78.8211 0.094,-0.1012 10.3006,-17.734 22.6805,-39.184 z m -161.7596,-40.5 c 0.041,-25.1625 0,-46.5656 -0.084,-47.5625 l -0.1584,-1.8125 h -47.4787 -47.4787 v 47.6256 47.6257 l 47.5625,-0.063 47.5625,-0.063 z m -99.9496,-1.7683 c 0,-41.1841 -0.038,-45.6355 -0.3892,-45.5625 -0.6413,0.1331 -78.8434,45.3149 -78.787,45.5196 0.056,0.203 78.6757,45.6695 78.9887,45.6799 0.1032,0 0.1875,-20.5332 0.1875,-45.637 z m 144.59,22.7709 c 21.6647,-12.511 39.3104,-22.8268 39.2127,-22.9239 -0.098,-0.097 -17.8088,-10.3553 -39.3581,-22.796 -21.5492,-12.4407 -39.2961,-22.6909 -39.4375,-22.7783 -0.1757,-0.1087 -0.2571,14.3253 -0.2571,45.6267 0,27.0004 0.092,45.7514 0.2249,45.7022 0.1236,-0.046 17.9504,-10.3196 39.6151,-22.8307 z m -231.34,-72.7526 v -47.625 h -47.625 -47.625 v 47.4792 c 0,37.7494 0.064,47.505 0.3125,47.6052 0.1719,0.069 21.6032,0.135 47.625,0.1459 l 47.3125,0.02 z m 373.1882,-0.062 0.063,-47.5625 h -47.6256 -47.6257 v 47.4583 c 0,26.1021 0.075,47.5336 0.1673,47.6257 0.092,0.092 21.4952,0.1389 47.5625,0.1041 l 47.3952,-0.063 z m -328.6932,22.9511 c 21.6535,-12.5033 39.3977,-22.8245 39.4315,-22.936 0.069,-0.2271 -78.4201,-45.5776 -78.8821,-45.5776 -0.2248,0 -0.2944,10.7871 -0.2944,45.625 0,25.0937 0.084,45.6243 0.1875,45.6235 0.1032,0 17.904,-10.2315 39.5575,-22.7349 z m 228.755,-23.0284 c 0,-25.8159 -0.095,-45.7062 -0.217,-45.6306 -0.1194,0.074 -17.8663,10.3238 -39.4375,22.7779 -21.5713,12.454 -39.3009,22.7239 -39.3993,22.8219 -0.1541,0.1536 78.3571,45.7236 78.8663,45.7762 0.1032,0.011 0.1875,-20.5748 0.1875,-45.7454 z m -86.662,-3.5477 c 0.087,-0.7219 0.1587,-22.1531 0.1599,-47.625 v -46.3125 h -47.625 -47.625 v 47.625 47.625 h 47.4652 47.4652 z m -99.838,-46.3308 c 0,-41.1841 -0.038,-45.6355 -0.3892,-45.5625 -0.6413,0.1331 -78.8434,45.3149 -78.787,45.5196 0.056,0.203 78.6757,45.6695 78.9887,45.6799 0.1032,0 0.1875,-20.5332 0.1875,-45.637 z m 144.5898,22.7701 c 21.6638,-12.5116 39.3092,-22.8273 39.212,-22.924 -0.097,-0.097 -17.8079,-10.3544 -39.3572,-22.7951 -21.5492,-12.4407 -39.2961,-22.6909 -39.4375,-22.7783 -0.1757,-0.1087 -0.2571,14.3253 -0.2571,45.6267 0,27.1065 0.092,45.7516 0.2256,45.7022 0.124,-0.046 17.9504,-10.32 39.6142,-22.8315 z m -233.2721,-25.3143 c 0.1087,-0.2095 -45.357,-79.0483 -45.5914,-79.057 -0.1542,-0.01 -45.7263,78.8182 -45.7263,79.0906 0,0.2232 91.202,0.1896 91.3177,-0.034 z m 373.17,-0.125 c -0.021,-0.5436 -45.3508,-78.7723 -45.6127,-78.7177 -0.2463,0.051 -45.625,78.4634 -45.625,78.8376 0,0.1059 20.5313,0.1926 45.625,0.1926 36.3399,0 45.6225,-0.064 45.6127,-0.3125 z m -328.1127,-23.6363 c 21.3125,-12.3037 39.6199,-22.8751 40.683,-23.492 1.0632,-0.6168 1.8955,-1.1918 1.8495,-1.2778 -0.046,-0.086 -10.7456,-18.6331 -23.7769,-41.2157 l -23.6934,-41.0593 -1.4222,0.8093 c -0.7822,0.4451 -19.3299,11.1512 -41.2171,23.7912 l -39.7948,22.9819 0.4479,0.7681 c 0.2464,0.4225 10.9486,18.9607 23.7827,41.1961 22.1842,38.4345 23.3609,40.4141 23.8631,40.1483 0.2905,-0.1538 17.9657,-10.3463 39.2782,-22.6501 z m 255.6204,-18.5113 c 12.9636,-22.4693 23.4628,-40.9291 23.3446,-41.0442 -0.3026,-0.2943 -82.1465,-47.5275 -82.2047,-47.4413 -0.026,0.039 -10.7201,18.5675 -23.7643,41.1748 l -23.7168,41.1042 0.5907,0.3958 c 0.3249,0.2177 18.8245,10.9304 41.1104,23.8061 30.2091,17.4533 40.5911,23.3377 40.8002,23.125 0.1543,-0.1569 10.8822,-18.6611 23.8399,-41.1204 z m -373.3481,0.2677 c 12.5247,-21.6879 22.7275,-39.517 22.6727,-39.6201 -0.1203,-0.2267 -91.319999,-0.255 -91.319999,-0.028 0,0.28 45.5633,79.091 45.7223,79.0859 0.084,0 10.400199,-17.7495 22.924999,-39.4375 z m 473.1027,0.1837 c 12.4438,-21.5792 22.6614,-39.4052 22.7059,-39.6131 0.072,-0.3365 -4.9549,-0.3782 -45.5893,-0.3782 -43.392,0 -45.6618,0.022 -45.5038,0.4375 0.091,0.2406 9.5181,16.6375 20.9481,36.4375 26.2791,45.5229 24.449,42.377 24.6459,42.3631 0.092,-0.01 10.3495,-17.6676 22.7932,-39.2468 z m -213.8396,-8.3644 c -0.307,-0.8 -45.4745,-78.8764 -45.6252,-78.8675 -0.2149,0.013 -45.5352,78.5982 -45.5352,78.9582 0,0.2088 11.8917,0.2824 45.6518,0.2824 40.3706,0 45.6352,-0.043 45.5086,-0.3731 z m -72.6489,-41.8815 c 12.5035,-21.6537 22.7348,-39.4548 22.7361,-39.5579 0,-0.1031 -20.5288,-0.1875 -45.6226,-0.1875 -34.0871,0 -45.625,0.072 -45.625,0.2861 0,0.4529 45.3521,78.9526 45.5764,78.8878 0.1108,-0.032 10.4315,-17.7748 22.9351,-39.4285 z m 100,0 c 12.5035,-21.6537 22.7348,-39.4548 22.7361,-39.5579 0,-0.1031 -20.5288,-0.1875 -45.6226,-0.1875 -34.0871,0 -45.625,0.072 -45.625,0.2861 0,0.4529 45.3521,78.9526 45.5764,78.8878 0.1108,-0.032 10.4315,-17.7748 22.9351,-39.4285 z m -262.0115,-42.1204 v -47.625 h -47.464399 -47.4643 l -0.1607,1.5367 c -0.088,0.8451 -0.1606,22.2764 -0.1606,47.625 v 46.0883 h 47.625 47.624999 z m 473.1882,0.062 -0.063,-47.5625 h -47.5 -47.5 l -0.063,47.5625 -0.063,47.5625 h 47.6263 47.6263 z m -423.8512,20.1875 c 19.0607,-11 34.6575,-20.0718 34.6594,-20.1596 0,-0.1506 -78.0951,-45.3271 -78.8785,-45.6277 -0.323,-0.124 -0.3679,5.4231 -0.3679,45.4689 0,25.0855 0.063,45.6733 0.1406,45.7506 0.077,0.077 2.3118,-1.1134 4.9655,-2.6459 2.6538,-1.5325 20.4202,-11.7863 39.4809,-22.7863 z m 323.8243,-65.7971 c -0.05,-0.049 -17.8751,10.1783 -39.6125,22.7285 -21.7374,12.5502 -39.4382,22.9031 -39.3353,23.0064 0.1029,0.1033 17.9001,10.4141 39.5493,22.9128 l 39.3622,22.7251 0.063,-45.6413 c 0.035,-25.1028 0.023,-45.6819 -0.027,-45.7315 z m -186.4113,-4.2923 v -47.4644 l -1.5366,-0.1606 c -0.8452,-0.088 -22.2765,-0.1606 -47.625,-0.1606 h -46.0884 v 47.625 47.625 h 47.625 47.625 z m 99.9382,-0.098 -0.063,-47.5625 -45.75,-0.075 c -25.1625,-0.041 -46.5656,0 -47.5625,0.084 l -1.8125,0.1583 v 47.4787 47.4787 h 47.6257 47.6256 z m -200.0452,-45.6279 c -0.1341,-0.1341 -79.1461,45.4626 -79.135,45.6676 0,0.081 17.8075,10.4155 39.5625,22.965 l 39.5545,22.8171 0.063,-45.6706 c 0.035,-25.1189 0.014,-45.7195 -0.045,-45.7791 z m 244.982,68.305 c 21.175,-12.208 38.6355,-22.3186 38.8012,-22.468 0.2239,-0.2019 -9.8036,-6.1066 -39.0956,-23.0216 -21.6682,-12.5125 -39.4943,-22.7875 -39.6136,-22.8333 -0.1221,-0.047 -0.217,19.9363 -0.217,45.7078 v 45.7913 l 0.8125,-0.49 c 0.4469,-0.2694 18.1375,-10.4783 39.3125,-22.6862 z m -331.625,-72.7403 v -47.6256 l -47.562499,0.063 -47.5625,0.063 -0.074,45.75 c -0.041,25.1625 0,46.5656 0.084,47.5625 l 0.1584,1.8125 h 47.4787 47.478599 z m 473.25,0 v -47.6256 l -47.5625,0.063 -47.5625,0.063 -0.063,47.5625 -0.063,47.5625 h 47.6257 47.6256 z m -423.913,20.2507 c 19.0607,-11 34.6575,-20.0718 34.6594,-20.1596 0,-0.1506 -78.0951,-45.3271 -78.8785,-45.6277 -0.323,-0.124 -0.3679,5.4231 -0.3679,45.4689 0,25.0855 0.063,45.6733 0.1406,45.7506 0.077,0.077 2.3118,-1.1134 4.9655,-2.6459 2.6538,-1.5325 20.4202,-11.7863 39.4809,-22.7863 z m 323.8243,-65.7971 c -0.05,-0.049 -17.8751,10.1783 -39.6125,22.7285 -21.7374,12.5502 -39.4382,22.9031 -39.3353,23.0064 0.1029,0.1033 17.9001,10.4141 39.5493,22.9128 l 39.3622,22.7251 0.063,-45.6413 c 0.035,-25.1028 0.023,-45.6819 -0.027,-45.7315 z m -188.4529,42.953 c -0.3904,-1.0264 -45.6236,-78.9634 -45.7518,-78.8305 -0.093,0.096 -10.1994,17.5558 -22.4596,38.7996 -12.2602,21.2437 -22.5155,38.9906 -22.7895,39.4375 l -0.4982,0.8125 h 45.7912 c 26.1157,0 45.7554,-0.094 45.7079,-0.2191 z m 100,0 c -0.3904,-1.0264 -45.6236,-78.9634 -45.7518,-78.8305 -0.093,0.096 -10.1994,17.5558 -22.4596,38.7996 -12.2602,21.2437 -22.5155,38.9906 -22.7895,39.4375 l -0.4982,0.8125 h 45.7912 c 26.1157,0 45.7554,-0.094 45.7079,-0.2191 z m -189.4226,-12.9257 c 3.8044,-6.5891 14.4558,-25.0302 23.6697,-40.9802 12.5787,-21.7744 16.6801,-29.0689 16.4611,-29.2764 -0.7659,-0.726 -81.9916,-47.3721 -82.1668,-47.1866 -0.2857,0.3027 -47.5194,82.1559 -47.4402,82.2112 0.036,0.025 7.2092,4.1637 15.9404,9.1968 8.7313,5.0331 27.1813,15.6805 41,23.6609 13.8188,7.9804 25.2361,14.4748 25.3719,14.4321 0.1358,-0.043 3.3596,-5.4687 7.1639,-12.0578 z m 236.0807,-11.5961 c 31.4993,-18.1897 40.8624,-23.7042 40.7496,-24 -0.081,-0.2113 -10.7427,-18.7482 -23.6937,-41.1931 -17.7101,-30.6927 -23.6403,-40.7752 -23.9224,-40.6724 -1.2586,0.4589 -81.9879,47.287 -81.9373,47.5288 0.171,0.8159 47.3341,82.0845 47.6011,82.0231 0.1687,-0.039 18.7099,-10.6977 41.2027,-23.6864 z m -118.9993,-17.9716 c 12.329,-21.3606 22.3709,-38.8827 22.3156,-38.9381 -0.055,-0.055 -20.6388,-0.072 -45.7408,-0.038 l -45.6401,0.063 22.6649,39.25 c 12.4657,21.5875 22.7621,39.4032 22.8811,39.5904 0.1662,0.2618 0.3185,0.1752 0.6596,-0.375 0.2439,-0.3935 10.5308,-18.1923 22.8597,-39.5529 z m -214.2218,-7.5046 c -0.074,-0.1194 -10.3238,-17.8662 -22.7779,-39.4375 -12.454,-21.5712 -22.722199,-39.2964 -22.818099,-39.3892 -0.1292,-0.125 -45.286,77.6784 -45.7577,78.8388 -0.046,0.1127 20.5202,0.205 45.7023,0.205 25.827699,0 45.727099,-0.095 45.651399,-0.2171 z m 472.9952,-0.2075 c -0.1878,-0.4895 -45.1091,-78.3574 -45.3625,-78.6328 -0.1307,-0.142 -45.3948,77.8681 -45.7364,78.8241 -0.051,0.1438 17.4349,0.2333 45.5893,0.2333 42.8652,0 45.6625,-0.026 45.5096,-0.4246 z m -445.6325,-41.86 22.7139,-39.3404 -45.652,-0.063 c -25.1086,-0.035 -45.6936,-0.022 -45.7444,0.029 -0.051,0.051 10.1752,17.8785 22.7246,39.6171 12.609,21.8418 22.9125,39.4291 23.0305,39.3111 0.1174,-0.1174 10.4347,-17.9166 22.9274,-39.5539 z m 373.3938,-0.3252 22.5268,-39.0152 -45.6303,-0.063 c -25.0967,-0.035 -45.6788,-0.015 -45.738,0.044 -0.059,0.059 10.1659,17.9023 22.7225,39.6513 22.0348,38.1662 22.8433,39.5238 23.2111,38.9707 0.2096,-0.3151 10.5181,-18.1298 22.9079,-39.5881 z m -162.2023,-39.7652 c 0.041,-25.1625 0,-46.5656 -0.084,-47.5625 l -0.1584,-1.8125 h -47.4787 -47.4787 v 47.6256 47.6257 l 47.5625,-0.063 47.5625,-0.063 z m -99.9496,-1.7792 c 0,-43.3619 -0.022,-45.6477 -0.4375,-45.5268 -0.8268,0.2405 -78.6875,45.3377 -78.6515,45.5552 0.037,0.2249 78.5398,45.6258 78.8914,45.6258 0.1087,0 0.1976,-20.5444 0.1976,-45.6542 z m 144.524,22.8595 c 21.7177,-12.537 39.4,-22.8744 39.2939,-22.972 -0.2808,-0.2583 -78.1494,-45.1844 -78.6477,-45.3756 -0.3926,-0.1506 -0.4202,2.8344 -0.4202,45.4905 0,25.1085 0.065,45.6518 0.1436,45.6518 0.079,0 17.9127,-10.2576 39.6304,-22.7947 z m -231.274,-72.831 v -47.6256 l -47.5625,0.063 -47.5625,0.063 -0.064,47.25 c -0.035,25.9875 -0.011,47.3906 0.055,47.5625 0.095,0.2485 9.8504,0.3125 47.6267,0.3125 h 47.5078 z m 373.25,8e-4 v -47.625 h -47.625 -47.625 v 47.625 47.625 h 47.625 47.625 z m -328.7648,22.9375 c 21.6119,-12.4781 39.3122,-22.8 39.334,-22.9375 0.042,-0.2642 -78.2207,-45.5902 -78.7567,-45.6123 -0.2489,-0.01 -0.3125,9.272 -0.3125,45.6122 0,26.1725 0.094,45.625 0.2205,45.625 0.1212,0 17.9029,-10.2094 39.5147,-22.6875 z m 228.7648,-22.9376 c 0,-25.0938 -0.084,-45.625 -0.1878,-45.625 -0.4287,0 -78.7747,45.3959 -78.7414,45.625 0.034,0.2339 78.3346,45.5934 78.7417,45.615 0.1032,0.01 0.1875,-20.5213 0.1875,-45.615 z m -86.662,-3.6875 c 0.087,-0.7219 0.1587,-22.1531 0.1599,-47.625 v -46.3125 h -47.625 -47.625 v 47.625 47.625 h 47.4652 47.4652 z m -99.838,-46.3417 c 0,-43.3619 -0.022,-45.6477 -0.4375,-45.5268 -0.8268,0.2405 -78.6875,45.3377 -78.6515,45.5552 0.037,0.2249 78.5398,45.6258 78.8914,45.6258 0.1087,0 0.1976,-20.5444 0.1976,-45.6542 z m 144.524,22.8595 c 21.7177,-12.537 39.4,-22.8744 39.2939,-22.972 -0.2808,-0.2583 -78.1494,-45.1844 -78.6477,-45.3756 -0.3926,-0.1506 -0.4202,2.8344 -0.4202,45.4905 0,25.1085 0.065,45.6518 0.1436,45.6518 0.079,0 17.9127,-10.2576 39.6304,-22.7947 z m -233.8137,-26.6818 c -4.4207,-7.814 -44.8681,-77.756198 -44.9705,-77.763698 -0.1368,-0.01 -45.7398,78.860198 -45.7398,79.106798 0,0.073 20.5978,0.1334 45.7728,0.1334 h 45.7728 z m 373.7897,1.2367 c 0,-0.2602 -45.1084,-78.468698 -45.4631,-78.823298 -0.1721,-0.1722 -45.1689,77.313198 -45.6989,78.694498 -0.1243,0.3239 5.3885,0.3686 45.5103,0.3686 28.968,0 45.6517,-0.088 45.6517,-0.2398 z m -326.7088,-24.491 c 22.5961,-13.0519 41.0554,-23.8527 41.0207,-24.0019 -0.035,-0.1491 -10.7133,-18.7176 -23.7302,-41.263198 l -23.667,-40.9921 -0.7699,0.4706 c -0.4234,0.2588 -18.9385,10.9563 -41.1448,23.7721 -22.2062,12.8159 -40.3999,23.3232 -40.4304,23.3497 -0.07,0.061 47.4553,82.395598 47.5603,82.395598 0.043,0 18.5652,-10.6788 41.1613,-23.7308 z m 253.9391,-17.2162 c 12.9828,-22.5104 23.6467,-41.053898 23.6974,-41.207898 0.086,-0.2619 -81.5707,-47.5951 -82.1089,-47.5951 -0.1364,0 -10.9064,18.4613 -23.9332,41.0252 -16.6344,28.812498 -23.6065,41.103798 -23.421,41.289298 0.2875,0.2876 81.8309,47.4214 82.0354,47.4183 0.069,0 10.7474,-18.4195 23.7303,-40.9298 z m -113.7303,-8.203 c 0,-0.082 -10.2576,-17.917698 -22.7947,-39.633798 -18.005,-31.1871 -22.8575,-39.4163 -23.0929,-39.1625 -0.203,0.2188 -40.9373,70.673698 -45.5352,78.758798 -0.059,0.1031 20.4875,0.1875 45.6581,0.1875 25.1706,0 45.7647,-0.067 45.7647,-0.15 z m -72.5722,-42.349998 22.5865,-39.125 -22.8821,-0.064 c -12.5852,-0.035 -33.1519,-0.035 -45.7037,0 l -22.8215,0.064 18.6945,32.375 c 10.282,17.8062 20.5681,35.622398 22.8578,39.591598 3.5187,6.0991 4.2035,7.1443 4.4227,6.75 0.1427,-0.2567 10.4233,-18.072898 22.8458,-39.591598 z m 100,0 22.5865,-39.125 -22.8821,-0.064 c -12.5852,-0.035 -33.1519,-0.035 -45.7037,0 l -22.8215,0.064 18.6945,32.375 c 10.282,17.8062 20.5681,35.622398 22.8578,39.591598 3.5187,6.0991 4.2035,7.1443 4.4227,6.75 0.1427,-0.2567 10.4233,-18.072898 22.8458,-39.591598 z"
       id="path22" />
  </g>
</svg>
